<?xml version="1.0" encoding="UTF-8"?>
<svg version="1.1" xmlns="http://www.w3.org/2000/svg" width="351" height="137">
<path d="M0 0 C1.80859375 1.04296875 1.80859375 1.04296875 3.4375 2.1875 C6.81602604 4.35798666 6.81602604 4.35798666 10.125 3.4375 C13.00996379 2.0659508 13.00996379 2.0659508 15.5625 0.3125 C18.68937322 -1.37120096 19.62593583 -0.98112147 23 0 C25.19345951 1.09490086 27.3483584 2.26849182 29.47265625 3.4921875 C30.38004799 4.01209763 30.38004799 4.01209763 31.30577087 4.54251099 C32.57919553 5.27391271 33.8506973 6.00867141 35.12036133 6.74658203 C37.05582862 7.87112381 38.99700353 8.98522719 40.93945312 10.09765625 C52.46273505 16.731949 52.46273505 16.731949 55 19 C55.2882731 22.27146292 55.12040592 25.39848914 54.9453125 28.67578125 C55.29335938 29.77277344 55.64140625 30.86976562 56 32 C57.64123068 32.73225789 59.30378068 33.41722503 60.9765625 34.07421875 C63.87898236 35.64336697 65.63041891 36.7822824 66.61260986 40.01846313 C67.46180806 45.48814216 67.42152827 50.97262123 67.30371094 56.49462891 C67.25008856 59.49504444 67.30318064 62.48051651 67.3671875 65.48046875 C67.41197845 79.49172639 67.41197845 79.49172639 63.70532227 83.45117188 C60.95703125 84.9375 60.95703125 84.9375 58.21826172 86.01367188 C57.48623535 86.33916016 56.75420898 86.66464844 56 87 C54.92299454 90.19522728 54.92299454 90.19522728 55.4375 93.5 C55.74609375 96.78125 55.74609375 96.78125 55 100 C52.31405024 102.51315725 49.18958155 104.19693796 46 106 C45.00863037 106.59345215 44.01726074 107.1869043 42.99584961 107.79833984 C39.76912437 109.71870765 36.5145243 111.5822197 33.25 113.4375 C32.14011719 114.08654297 31.03023438 114.73558594 29.88671875 115.40429688 C28.81550781 116.01208984 27.74429688 116.61988281 26.640625 117.24609375 C25.19478027 118.07645142 25.19478027 118.07645142 23.71972656 118.92358398 C20.58934016 120.16253135 19.16016662 120.02974786 16 119 C14.15625 117.95703125 14.15625 117.95703125 12.5 116.8125 C9.24501217 114.65660456 9.24501217 114.65660456 6.375 115.5625 C4.73868526 116.55290103 3.13510676 117.59877224 1.5625 118.6875 C-1.81207106 120.41593884 -3.34962539 119.88029564 -7 119 C-9.75732422 117.68066406 -9.75732422 117.68066406 -12.5546875 116.015625 C-13.58207031 115.40976563 -14.60945313 114.80390625 -15.66796875 114.1796875 C-17.25544922 113.22449219 -17.25544922 113.22449219 -18.875 112.25 C-19.92558594 111.62867188 -20.97617187 111.00734375 -22.05859375 110.3671875 C-24.10927792 109.15063644 -26.15286966 107.92203442 -28.18847656 106.68041992 C-29.93831058 105.63456133 -31.71369605 104.62899134 -33.52246094 103.6887207 C-35.5761528 102.58475896 -37.30817706 101.60387429 -39 100 C-39.78125 96.44921875 -39.78125 96.44921875 -39.5 92.6875 C-39.4278125 91.43324219 -39.355625 90.17898437 -39.28125 88.88671875 C-39.1884375 87.93410156 -39.095625 86.98148437 -39 86 C-39.886875 85.731875 -40.77375 85.46375 -41.6875 85.1875 C-47.66001783 83.0464087 -47.66001783 83.0464087 -50 81 C-50.72460719 77.77307517 -50.58012218 74.59302308 -50.48828125 71.30078125 C-50.48120651 70.35059616 -50.47413177 69.40041107 -50.46684265 68.4214325 C-50.4388367 65.38432324 -50.37608644 62.34905265 -50.3125 59.3125 C-50.28742516 57.2545839 -50.26461058 55.19663893 -50.24414062 53.13867188 C-50.18898955 48.09173866 -50.10267382 43.04618112 -50 38 C-48.54462432 37.16151196 -47.08559627 36.32936066 -45.625 35.5 C-44.81289062 35.0359375 -44.00078125 34.571875 -43.1640625 34.09375 C-41 33 -41 33 -39 33 C-39.19722656 32.10539062 -39.39445313 31.21078125 -39.59765625 30.2890625 C-40.13474959 26.05550326 -40.17080503 23.12364418 -39 19 C-35.10606219 14.85791909 -29.50352647 12.65026011 -24.45166016 10.23388672 C-21.96454627 8.98215663 -19.62424803 7.60112156 -17.26171875 6.12890625 C-16.5049585 5.65807617 -15.74819824 5.18724609 -14.96850586 4.70214844 C-13.51674034 3.79277798 -12.06818612 2.87825555 -10.62329102 1.95800781 C-4.42310621 -1.79712897 -4.42310621 -1.79712897 0 0 Z M13.0546875 5.7109375 C12.06734619 6.29206299 11.08000488 6.87318848 10.06274414 7.47192383 C8.48481079 8.41394653 8.48481079 8.41394653 6.875 9.375 C5.80435303 10.00752686 4.73370605 10.64005371 3.63061523 11.29174805 C1.45488317 12.57754831 -0.71935824 13.86587434 -2.89208984 15.15673828 C-5.69954932 16.82180655 -8.51335131 18.47511389 -11.33203125 20.12109375 C-12.51031494 20.80969482 -12.51031494 20.80969482 -13.71240234 21.51220703 C-15.1695819 22.36374733 -16.62693225 23.21499547 -18.08447266 24.06591797 C-21.22220528 25.78780827 -21.22220528 25.78780827 -24 28 C-24.07148199 29.35243917 -24.08399454 30.70834367 -24.0625 32.0625 C-24.041875 33.361875 -24.02125 34.66125 -24 36 C-17.92622122 34.2685608 -13.31973482 31.07840822 -8.12109375 27.58203125 C-4.53075409 25.76214694 -3.73403191 25.89301763 0 27 C2.18481445 28.18676758 2.18481445 28.18676758 4.36328125 29.64453125 C5.16830078 30.15564453 5.97332031 30.66675781 6.80273438 31.19335938 C8.47664326 32.27325857 10.13830576 33.37237936 11.78710938 34.49023438 C14.20352743 35.99784819 16.26189092 37.205467 19 38 C22.11721429 37.25750263 24.44971794 35.91326374 27 34 C24.86193566 31.69843172 22.74263787 30.1184023 20.0234375 28.5546875 C19.270625 28.11769531 18.5178125 27.68070313 17.7421875 27.23046875 C16.57042969 26.55951172 16.57042969 26.55951172 15.375 25.875 C13.81957716 24.97783617 12.26485138 24.07946237 10.7109375 23.1796875 C10.02306152 22.78507324 9.33518555 22.39045898 8.62646484 21.98388672 C7 21 7 21 6 20 C7.88457538 18.79471335 9.78317585 17.61133551 11.6875 16.4375 C13.27111328 15.44556641 13.27111328 15.44556641 14.88671875 14.43359375 C18 13 18 13 20.3671875 12.96484375 C25.15585418 14.84762813 29.37551471 17.78155806 33.67382812 20.58203125 C38.16668683 23.37099016 38.16668683 23.37099016 43.34765625 23.9921875 C46.04269625 22.98402821 47.08902156 22.05959067 49 20 C42.84091705 15.79936077 36.57220914 11.86722865 30.125 8.125 C29.28453125 7.62742187 28.4440625 7.12984375 27.578125 6.6171875 C26.77117187 6.14796875 25.96421875 5.67875 25.1328125 5.1953125 C24.40980957 4.77266113 23.68680664 4.35000977 22.94189453 3.91455078 C18.88820493 2.0054332 16.62116559 3.59556163 13.0546875 5.7109375 Z M-1 4 C-1 5.98 -1 7.96 -1 10 C0.65 9.34 2.3 8.68 4 8 C2.68799596 6.64567325 1.35368596 5.31266518 0 4 C-0.33 4 -0.66 4 -1 4 Z M-11.6796875 7.2109375 C-12.2482547 7.53913483 -12.8168219 7.86733215 -13.40261841 8.20547485 C-14.60868314 8.90223923 -15.81414075 9.60005536 -17.01904297 10.29882812 C-18.85896357 11.36570132 -20.70078912 12.42922074 -22.54296875 13.4921875 C-28.85238738 17.11408952 -28.85238738 17.11408952 -35 21 C-35.43793526 23.25817121 -35.43793526 23.25817121 -35.34057617 25.90869141 C-35.34034958 26.92959869 -35.34012299 27.95050598 -35.33988953 29.00234985 C-35.32440567 30.10759003 -35.30892181 31.2128302 -35.29296875 32.3515625 C-35.28872391 33.4807309 -35.28447906 34.60989929 -35.28010559 35.77328491 C-35.26327132 39.39076273 -35.22560975 43.00768969 -35.1875 46.625 C-35.17245934 49.07290864 -35.15876986 51.52082598 -35.14648438 53.96875 C-35.11335227 59.9793556 -35.06310579 65.98963846 -35 72 C-32.36 73.32 -29.72 74.64 -27 76 C-27 67.75 -27 59.5 -27 51 C-25.35 50.34 -23.7 49.68 -22 49 C-19.00060388 47.58752769 -16.09721173 46.02528066 -13.1875 44.4375 C-12.39923828 44.04498047 -11.61097656 43.65246094 -10.79882812 43.24804688 C-8.52074481 41.98375994 -6.76466915 40.92183233 -5 39 C-4.3243735 35.88615861 -4.49308894 33.13046603 -5 30 C-7.37715196 31.24603894 -9.75169058 32.4966793 -12.125 33.75 C-12.79015625 34.09804688 -13.4553125 34.44609375 -14.140625 34.8046875 C-14.79804688 35.15273438 -15.45546875 35.50078125 -16.1328125 35.859375 C-17.02830811 36.33068848 -17.02830811 36.33068848 -17.94189453 36.81152344 C-20.7084283 38.40909003 -23.34187237 40.22791491 -26 42 C-26.33 36.39 -26.66 30.78 -27 25 C-25.35 24.34 -23.7 23.68 -22 23 C-19.00060388 21.58752769 -16.09721173 20.02528066 -13.1875 18.4375 C-12.39923828 18.04498047 -11.61097656 17.65246094 -10.79882812 17.24804688 C-8.52074481 15.98375994 -6.76466915 14.92183233 -5 13 C-4.3243735 9.88615861 -4.49308894 7.13046603 -5 4 C-7.24278087 4 -9.84424855 6.14977663 -11.6796875 7.2109375 Z M17.17578125 16.77734375 C16.56089844 17.16019531 15.94601562 17.54304688 15.3125 17.9375 C14.219375 18.618125 13.12625 19.29875 12 20 C15.67011741 22.90786226 19.61860643 25.28136133 23.625 27.6875 C24.305625 28.10322266 24.98625 28.51894531 25.6875 28.94726562 C29.10096804 31.21226589 29.10096804 31.21226589 33 32 C32.97381592 32.80219971 32.94763184 33.60439941 32.9206543 34.4309082 C32.81686059 38.05790705 32.75172696 41.68459403 32.6875 45.3125 C32.64560547 46.57513672 32.60371094 47.83777344 32.56054688 49.13867188 C32.54443359 50.34716797 32.52832031 51.55566406 32.51171875 52.80078125 C32.48553467 53.91622314 32.45935059 55.03166504 32.43237305 56.1809082 C32.72352689 59.20371893 32.72352689 59.20371893 35.40551758 60.88745117 C37.83586147 62.13136906 37.83586147 62.13136906 40 62 C40 53.75 40 45.5 40 37 C51.02047083 40.67349028 51.02047083 40.67349028 54 45 C56.19055182 53.71583894 55.49374324 63.09412937 55 72 C57.64 73.32 60.28 74.64 63 76 C63.32338703 71.16258928 63.55803078 66.33154061 63.71411133 61.48583984 C63.77918099 59.84182169 63.86768697 58.19854747 63.98071289 56.55712891 C64.54251227 48.67418131 64.54251227 48.67418131 63 41 C59.7579357 37.52380826 56.23184669 35.73884018 51.896698 33.86151123 C48.69316081 32.40641228 45.72874682 30.55496417 42.7109375 28.75390625 C41.49260502 28.05234379 40.27254653 27.35377017 39.05078125 26.65820312 C36.55875029 25.23793835 34.06938161 23.81321174 31.58203125 22.38476562 C30.37517856 21.69499999 29.16815402 21.00553492 27.9609375 20.31640625 C26.88634277 19.70224854 25.81174805 19.08809082 24.70458984 18.45532227 C21.07637619 16.2537776 21.07637619 16.2537776 17.17578125 16.77734375 Z M46 27 C47.98 27.99 49.96 28.98 52 30 C52 28.02 52 26.04 52 24 C49.23776722 24 48.10718546 25.31425163 46 27 Z M-1 31 C-1.9854303 35.09955857 -1.9854303 35.09955857 -1 39 C4.69530671 43.68391309 11.41663342 46.74833717 18 50 C18.52073098 46.86395599 18.69162753 44.11878771 18 41 C15.60118584 38.41891197 12.75205808 37.00354275 9.625 35.4375 C8.8309375 35.00115234 8.036875 34.56480469 7.21875 34.11523438 C3.31798192 31.81842264 3.31798192 31.81842264 -1 31 Z M21 41 C20.23299389 44.76586164 20.43577326 48.42664954 20.625 52.25 C20.65207031 53.28125 20.67914063 54.3125 20.70703125 55.375 C20.77769201 57.9187875 20.87627922 60.45833099 21 63 C23.64 61.68 26.28 60.36 29 59 C29 51.74 29 44.48 29 37 C25.26972064 37 23.67679304 38.50358385 21 41 Z M-44 39 C-44 39.66 -44 40.32 -44 41 C-41.525 41.99 -41.525 41.99 -39 43 C-39 41.02 -39 39.04 -39 37 C-40.84046388 37 -42.39629594 38.17228177 -44 39 Z M-12.8125 46.75 C-13.99489258 47.45382813 -13.99489258 47.45382813 -15.20117188 48.171875 C-18.18343229 49.96680418 -18.18343229 49.96680418 -21 52 C-21 52.66 -21 53.32 -21 54 C-18.55480221 55.88629544 -16.95884851 57.0582158 -13.8125 56.8671875 C-9.88163555 55.65517096 -6.66105813 53.60805833 -3.1875 51.4375 C-2.49462891 51.01275391 -1.80175781 50.58800781 -1.08789062 50.15039062 C0.61216951 49.10690544 2.30665476 48.05434704 4 47 C-1.9144244 40.15171911 -6.06856611 42.49900395 -12.8125 46.75 Z M-47 43 C-49.51594858 62.14485611 -49.51594858 62.14485611 -45.75048828 80.39746094 C-42.18161352 83.97600745 -37.58203368 85.30872936 -32.87353516 86.86328125 C-29.45383519 88.21605296 -26.4075425 90.0073524 -23.29296875 91.9375 C-22.71716064 92.29148865 -22.14135254 92.64547729 -21.5480957 93.01019287 C-19.8010598 94.08719041 -18.05641184 95.16795231 -16.3125 96.25 C-14.11449824 97.61179515 -11.90290393 98.95199554 -9.67578125 100.265625 C-8.72614502 100.84086914 -7.77650879 101.41611328 -6.7980957 102.00878906 C-3.96795455 103.27965363 -3.96795455 103.27965363 -0.77026367 102.35839844 C2.25430636 101.16329759 2.25430636 101.16329759 4 98 C3.42967041 97.80293457 2.85934082 97.60586914 2.27172852 97.40283203 C-4.10822867 95.01645074 -10.59641802 92.37044545 -15 87 C-16.62247768 81.41430157 -16.36918502 75.88117183 -15.90600586 70.12939453 C-15.82745361 69.02708496 -15.74890137 67.92477539 -15.66796875 66.7890625 C-15.54703857 65.79600098 -15.4261084 64.80293945 -15.30151367 63.77978516 C-15.97808511 59.72825397 -15.97808511 59.72825397 -24 56 C-24.33 64.25 -24.66 72.5 -25 81 C-35.22620266 78.12077789 -35.22620266 78.12077789 -38 74 C-40.0906948 65.26827466 -39.43082648 55.90772795 -39 47 C-41.64 45.68 -44.28 44.36 -47 43 Z M44 43 C44 51.25 44 59.5 44 68 C42.02 68.66 40.04 69.32 38 70 C34.95103366 71.36310247 32.04826205 72.94975119 29.125 74.5625 C27.949375 75.1512793 27.949375 75.1512793 26.75 75.75195312 C24.48444826 77.01695196 22.74720918 78.07670222 21 80 C20.33048111 83.11255058 20.49722561 85.87119628 21 89 C28.77077134 85.17564133 36.41947823 81.18923572 44 77 C44 82.61 44 88.22 44 94 C42.35 94.66 40.7 95.32 39 96 C37.51091597 96.7680418 36.03537438 97.56288344 34.57421875 98.3828125 C33.77822266 98.82753906 32.98222656 99.27226563 32.16210938 99.73046875 C31.34548828 100.19066406 30.52886719 100.65085938 29.6875 101.125 C28.85154297 101.59292969 28.01558594 102.06085938 27.15429688 102.54296875 C25.10135297 103.69261734 23.05047017 104.84594514 21 106 C21 108.97 21 111.94 21 115 C24.97275304 113.52908578 28.51552627 111.6510734 32.17578125 109.5234375 C33.21903564 108.91935059 34.26229004 108.31526367 35.3371582 107.69287109 C36.649021 106.92797363 37.96088379 106.16307617 39.3125 105.375 C43.499375 102.94125 47.68625 100.5075 52 98 C52 81.17 52 64.34 52 47 C49.36 45.68 46.72 44.36 44 43 Z M0.70703125 52.17578125 C-1.55948168 54.59789003 -1.77389474 56.21482353 -2 59.5 C-1.76779302 62.74213517 -1.52399181 64.40472529 0.63671875 66.859375 C3.63546549 68.89281089 5.98484404 69.97582962 9.625 70.0625 C10.40875 69.711875 11.1925 69.36125 12 69 C13.6396875 68.319375 13.6396875 68.319375 15.3125 67.625 C18.38277091 64.62613074 18.56799631 63.70984075 18.875 59.5625 C18.71128353 56.25277238 18.57689124 54.6206554 16.30078125 52.171875 C10.40180404 48.37733883 6.60103247 48.3594428 0.70703125 52.17578125 Z M-13 61 C-13.76336793 64.60113849 -13.56510034 68.08934992 -13.375 71.75 C-13.34792969 72.73355469 -13.32085937 73.71710938 -13.29296875 74.73046875 C-13.22232587 77.15587423 -13.12376119 79.57681945 -13 82 C-8.58477891 80.73025028 -8.58477891 80.73025028 -5 78 C-4.72258755 75.76964703 -4.72258755 75.76964703 -4.8046875 73.2109375 C-4.81113281 72.26992187 -4.81757813 71.32890625 -4.82421875 70.359375 C-4.84935547 68.88210937 -4.84935547 68.88210937 -4.875 67.375 C-4.88402344 66.38242188 -4.89304687 65.38984375 -4.90234375 64.3671875 C-4.92595884 61.91121866 -4.95889201 59.45572832 -5 57 C-8.70381724 57 -10.332387 58.54090661 -13 61 Z M20.1875 66.9375 C19.39923828 67.41896484 18.61097656 67.90042969 17.79882812 68.39648438 C15.85745992 69.58483704 13.92544763 70.78608255 12 72 C14.59876808 74.6715614 16.21915379 76.33669365 20 77 C23.32532813 75.75134978 26.27951787 73.95867349 29.3125 72.125 C30.14845703 71.63902344 30.98441406 71.15304688 31.84570312 70.65234375 C33.90720963 69.45077996 35.95735205 68.23326099 38 67 C36.08119685 64.79692971 34.44578829 63.21458015 31.80078125 61.94140625 C27.23187781 62.03699 23.97661378 64.54587999 20.1875 66.9375 Z M-1 70 C-1 72.97 -1 75.94 -1 79 C1.97776378 80.66921693 4.95711175 82.33548128 7.9375 84 C8.78763672 84.47695312 9.63777344 84.95390625 10.51367188 85.4453125 C11.32255859 85.89648438 12.13144531 86.34765625 12.96484375 86.8125 C14.08814087 87.44091797 14.08814087 87.44091797 15.23413086 88.08203125 C16.81617648 89.07687345 16.81617648 89.07687345 18 89 C18.52073098 85.86395599 18.69162753 83.11878771 18 80 C15.60118584 77.41891197 12.75205808 76.00354275 9.625 74.4375 C8.8309375 74.00115234 8.036875 73.56480469 7.21875 73.11523438 C3.31798192 70.81842264 3.31798192 70.81842264 -1 70 Z M55 76 C55 77.98 55 79.96 55 82 C56.98 81.34 58.96 80.68 61 80 C58.94766315 77.7522025 57.99332739 76.9977758 55 76 Z M-10 85 C-6.51310684 89.00855435 -2.42832158 91.16322849 2.1875 93.625 C3.64203662 94.40380701 5.09400718 95.18743164 6.54296875 95.9765625 C7.5023938 96.48823975 7.5023938 96.48823975 8.48120117 97.01025391 C10 98 10 98 11 100 C10.319375 100.2475 9.63875 100.495 8.9375 100.75 C6.55905122 101.76210586 4.71202327 102.80702839 2.5625 104.1875 C-1.63600414 106.32358106 -2.55804764 106.25191818 -7 105 C-10.74599132 103.04056544 -14.26558036 100.71557519 -17.81054688 98.41796875 C-21.9874884 95.73117262 -21.9874884 95.73117262 -26.77734375 95.0078125 C-29.15801027 96.07053534 -31.01795151 97.31158832 -33 99 C-29.35421534 101.29110097 -25.69041764 103.54938967 -22.00732422 105.77978516 C-20.63814828 106.6120816 -19.27272444 107.45057432 -17.91064453 108.29443359 C-15.80653676 109.59228091 -13.68699116 110.8608584 -11.5625 112.125 C-10.57056641 112.74652954 -10.57056641 112.74652954 -9.55859375 113.38061523 C-6.41270601 115.21823716 -4.71996662 116.17936885 -1.10717773 115.27929688 C1.88428655 114.0476419 4.56358687 112.67321019 7.34375 111.0234375 C8.33697266 110.43836426 9.33019531 109.85329102 10.35351562 109.25048828 C11.39185547 108.63157715 12.43019531 108.01266602 13.5 107.375 C15.64555999 106.10891168 17.79139236 104.84328481 19.9375 103.578125 C20.97390625 102.96517578 22.0103125 102.35222656 23.078125 101.72070312 C26.86700874 99.48941531 30.67746941 97.29801215 34.5 95.125 C35.5828125 94.50882813 36.665625 93.89265625 37.78125 93.2578125 C38.5134375 92.84273437 39.245625 92.42765625 40 92 C40 89.03 40 86.06 40 83 C35.00590786 84.78765798 30.63433026 87.52415685 26.171875 90.34179688 C23.6197871 91.87027561 21.60688031 92.98618484 18.59765625 93.0546875 C13.80051319 91.10697528 9.52738344 88.24568494 5.15039062 85.50585938 C4.05307617 84.83586914 4.05307617 84.83586914 2.93359375 84.15234375 C2.27415771 83.73976318 1.61472168 83.32718262 0.93530273 82.90209961 C-3.5330113 80.81929144 -6.25893945 82.50595963 -10 85 Z M-35 89 C-35 90.98 -35 92.96 -35 95 C-33.35 94.34 -31.7 93.68 -30 93 C-31.31200404 91.64567325 -32.64631404 90.31266518 -34 89 C-34.33 89 -34.66 89 -35 89 Z M13 111 C13 111.66 13 112.32 13 113 C15.475 113.99 15.475 113.99 18 115 C18 113.02 18 111.04 18 109 C15.67642489 108.81509993 15.67642489 108.81509993 13 111 Z " fill="#215AA8" transform="translate(285,17)"/>
<path d="M0 0 C0.99 0.33 1.98 0.66 3 1 C5.7409985 9.67824784 5.63629743 18.88805364 6.02905273 27.91723633 C6.64182248 42.96224291 6.64182248 42.96224291 11.625 57 C21.95400645 65.6981107 39.01384822 66.33662073 52 67 C52.83273438 67.05285156 53.66546875 67.10570313 54.5234375 67.16015625 C80.20080917 68.00625876 107.07972413 60.85482209 131.13427734 52.56323242 C133 52 133 52 135 52 C134.125 57.75 134.125 57.75 133 60 C139.62135249 60.36964608 139.62135249 60.36964608 146 58.875 C148.54207779 56.49180208 149.18221657 54.34547769 150 51 C148.865625 51.185625 147.73125 51.37125 146.5625 51.5625 C145.386875 51.706875 144.21125 51.85125 143 52 C142 51 142 51 141.75 47.25 C141.81226106 43.39673238 142.38352207 40.97737143 145 38 C147.6875 37.1875 147.6875 37.1875 150 37 C154.53024107 41.86347948 154.66080259 45.25685548 154.44921875 51.69921875 C153.69484087 57.2422562 151.62975935 61.63979099 147.4375 65.40234375 C142.74659655 68.69770342 138.64791565 69.40342255 133 69 C131.125 67.875 131.125 67.875 130 66 C129.63509491 64.00551877 129.2989128 62.00543318 129 60 C127.7625 60.44730469 126.525 60.89460938 125.25 61.35546875 C115.48687524 64.79594429 105.76875772 67.71628597 95.625 69.8125 C94.22121094 70.10386841 94.22121094 70.10386841 92.7890625 70.40112305 C79.74712777 72.97894296 67.00935246 74.35483293 53.73876953 74.31567383 C51.50113625 74.31250161 49.26481648 74.33614127 47.02734375 74.36132812 C33.98394919 74.41892947 20.13984099 73.51550151 9 66 C3.40454296 60.40454296 2.6048158 54.30139454 1.9375 46.75 C1.81290405 45.43394775 1.81290405 45.43394775 1.68579102 44.09130859 C1.08966039 37.5883851 0.64429088 31.08073829 0.34155273 24.55761719 C0.19828808 21.62197423 -0.03600506 18.78396964 -0.51953125 15.8828125 C-1.0076774 12.95393563 -1.13319478 10.21650953 -1.125 7.25 C-1.12757812 6.30640625 -1.13015625 5.3628125 -1.1328125 4.390625 C-1 2 -1 2 0 0 Z " fill="#215AA8" transform="translate(44,0)"/>
<path d="M0 0 C1.49176758 -0.04350586 1.49176758 -0.04350586 3.01367188 -0.08789062 C9.10138066 -0.14054546 12.70661914 0.19546885 17.3125 4.3125 C18.86745698 7.42241396 18.55326956 10.74594049 18.62890625 14.1640625 C18.64968735 14.93809418 18.67046844 15.71212585 18.69187927 16.50961304 C18.75733448 18.98548392 18.81624087 21.46146202 18.875 23.9375 C18.91818907 25.61459448 18.96180348 27.29167807 19.00585938 28.96875 C19.11301171 33.08322308 19.21429045 37.19780414 19.3125 41.3125 C16.6725 41.3125 14.0325 41.3125 11.3125 41.3125 C10.9825 40.3225 10.6525 39.3325 10.3125 38.3125 C9.27609375 39.04339844 9.27609375 39.04339844 8.21875 39.7890625 C4.82051951 41.570393 2.6277945 41.71424272 -1.1875 41.6875 C-2.2909375 41.69523437 -3.394375 41.70296875 -4.53125 41.7109375 C-8.02146953 41.27034048 -9.88369204 40.40170912 -12.6875 38.3125 C-15.6899199 33.86063601 -16.57411492 29.59142561 -15.6875 24.3125 C-14.25654312 19.79463615 -12.44000496 17.74449359 -8.3125 15.375 C-2.32424808 13.50794046 4.11910061 14.07763794 10.3125 14.3125 C9.71066251 12.29204558 9.03943904 10.29138961 8.3125 8.3125 C2.73889644 5.52569822 -5.70160863 7.24834153 -11.6875 8.3125 C-11.72991723 5.97955225 -11.72842937 3.64547433 -11.6875 1.3125 C-9.27710818 -1.09789182 -3.2327685 0.03082742 0 0 Z M-4.9375 21.875 C-7.36297804 25.25334442 -7.34123541 27.244813 -6.6875 31.3125 C-5.20756844 33.87588689 -5.20756844 33.87588689 -2.6875 35.3125 C1.27512101 35.80782763 3.96675219 35.48859614 7.3125 33.3125 C8.43857628 31.28952552 8.43857628 31.28952552 9.0625 28.9375 C9.30484375 28.16664062 9.5471875 27.39578125 9.796875 26.6015625 C10.45899991 24.05319879 10.45899991 24.05319879 10.3125 20.3125 C2.46224086 19.74401389 2.46224086 19.74401389 -4.9375 21.875 Z " fill="#215AA8" transform="translate(154.6875,95.6875)"/>
<path d="M0 0 C1.49176758 -0.04350586 1.49176758 -0.04350586 3.01367188 -0.08789062 C9.10138066 -0.14054546 12.70661914 0.19546885 17.3125 4.3125 C18.86745698 7.42241396 18.55326956 10.74594049 18.62890625 14.1640625 C18.64968735 14.93809418 18.67046844 15.71212585 18.69187927 16.50961304 C18.75733448 18.98548392 18.81624087 21.46146202 18.875 23.9375 C18.91818907 25.61459448 18.96180348 27.29167807 19.00585938 28.96875 C19.11301171 33.08322308 19.21429045 37.19780414 19.3125 41.3125 C16.6725 41.3125 14.0325 41.3125 11.3125 41.3125 C10.9825 39.9925 10.6525 38.6725 10.3125 37.3125 C9.27609375 38.28896484 9.27609375 38.28896484 8.21875 39.28515625 C4.76257251 41.69611877 2.97874414 41.82300661 -1.1875 41.75 C-2.2909375 41.74871094 -3.394375 41.74742187 -4.53125 41.74609375 C-8.00130911 41.26939009 -9.89263548 40.3900984 -12.6875 38.3125 C-15.76627839 33.74741481 -16.46767459 29.66684889 -15.6875 24.3125 C-14.3704442 20.63860751 -13.38399919 18.83040965 -10.25 16.5 C-5.54912264 14.32154464 -1.62658849 14.20195288 3.5625 14.25 C5.45742188 14.26353516 5.45742188 14.26353516 7.390625 14.27734375 C8.35484375 14.28894531 9.3190625 14.30054687 10.3125 14.3125 C9.71066251 12.29204558 9.03943904 10.29138961 8.3125 8.3125 C2.73889644 5.52569822 -5.70160863 7.24834153 -11.6875 8.3125 C-11.72991723 5.97955225 -11.72842937 3.64547433 -11.6875 1.3125 C-9.27710818 -1.09789182 -3.2327685 0.03082742 0 0 Z M-4.9375 21.875 C-7.36297804 25.25334442 -7.34123541 27.244813 -6.6875 31.3125 C-5.20756844 33.87588689 -5.20756844 33.87588689 -2.6875 35.3125 C1.27512101 35.80782763 3.96675219 35.48859614 7.3125 33.3125 C8.43857628 31.28952552 8.43857628 31.28952552 9.0625 28.9375 C9.30484375 28.16664062 9.5471875 27.39578125 9.796875 26.6015625 C10.45899991 24.05319879 10.45899991 24.05319879 10.3125 20.3125 C2.46224086 19.74401389 2.46224086 19.74401389 -4.9375 21.875 Z " fill="#215AA8" transform="translate(57.6875,95.6875)"/>
<path d="M0 0 C0.66 0.33 1.32 0.66 2 1 C2.59423828 3.42089844 2.59423828 3.42089844 3.0703125 6.609375 C3.24433594 7.75664063 3.41835938 8.90390625 3.59765625 10.0859375 C3.77167969 11.29507812 3.94570313 12.50421875 4.125 13.75 C4.30675781 14.94367187 4.48851562 16.13734375 4.67578125 17.3671875 C6.11745358 27.05782707 6.11745358 27.05782707 6 32 C6.433125 31.505 6.86625 31.01 7.3125 30.5 C9 29 9 29 12 29 C10.25 34.75 10.25 34.75 8 37 C7.62885937 39.989744 7.35019685 42.93678053 7.125 45.9375 C6.22007376 55.79565566 4.83339167 65.19271293 -2.30859375 72.62109375 C-5.99472205 75.62618218 -9.52527538 77.02941099 -14.30078125 76.97265625 C-19.56022304 76.18594983 -22.41923123 74.25435166 -25.7109375 70.14453125 C-29.15345851 64.41742811 -30.53718126 59.69459329 -30.4375 53 C-30.43065186 52.29593018 -30.42380371 51.59186035 -30.41674805 50.86645508 C-30.2455657 45.35976905 -29.58068475 42.16133633 -26 38 C-21.22610302 33.9080883 -15.03604578 34 -9 34 C-8.86948242 33.32533691 -8.73896484 32.65067383 -8.60449219 31.95556641 C-7.99641751 28.84331031 -7.37330602 25.73423997 -6.75 22.625 C-6.54503906 21.56410156 -6.34007813 20.50320312 -6.12890625 19.41015625 C-4.74766118 12.58764273 -2.83826099 6.35848808 0 0 Z M-2 17 C-2.50690584 19.06081361 -3.00524619 21.12373526 -3.5 23.1875 C-3.7784375 24.33605469 -4.056875 25.48460937 -4.34375 26.66796875 C-4.91495385 29.56818829 -5.13283779 32.06096385 -5 35 C-3.02 35 -1.04 35 1 35 C1.23268915 28.71739294 0.40454548 23.11980533 -1 17 C-1.33 17 -1.66 17 -2 17 Z M-25.8125 44.3125 C-27.70627751 47.00365752 -27.93957613 48.67668692 -28 52 C-26.36868355 58.27037261 -23.73989543 64.54085772 -18 68 C-13.3181486 69.55501348 -10.13399452 69.5562992 -5.6875 67.375 C0.74723414 61.68849076 3.68800328 55.75795005 4.25 47.1875 C4.07551095 43.8318906 4.07551095 43.8318906 3 40 C0.03 40 -2.94 40 -6 40 C-6.66 41.65 -7.32 43.3 -8 45 C-8.33 43.35 -8.66 41.7 -9 40 C-15.78135788 39.59311853 -20.16138317 40.22031195 -25.8125 44.3125 Z " fill="#215AA8" transform="translate(30,0)"/>
<path d="M0 0 C11.88 0 23.76 0 36 0 C36 1.98 36 3.96 36 6 C27.42 6 18.84 6 10 6 C10 11.28 10 16.56 10 22 C17.59 22 25.18 22 33 22 C33 23.98 33 25.96 33 28 C25.41 28 17.82 28 10 28 C10 36.58 10 45.16 10 54 C6.7 54 3.4 54 0 54 C0 36.18 0 18.36 0 0 Z " fill="#215AA8" transform="translate(6,83)"/>
<path d="M0 0 C0 3.63 0 7.26 0 11 C3.63 10.67 7.26 10.34 11 10 C11 11.98 11 13.96 11 16 C7.37 16 3.74 16 0 16 C0.13810905 20.47944035 0.28677416 24.95846783 0.4375 29.4375 C0.47681641 30.71689453 0.51613281 31.99628906 0.55664062 33.31445312 C0.61948242 35.13686523 0.61948242 35.13686523 0.68359375 36.99609375 C0.72025146 38.12200928 0.75690918 39.2479248 0.79467773 40.40795898 C0.71218045 42.92853441 0.71218045 42.92853441 2 44 C4.67058851 44.14115161 7.32432238 44.04247107 10 44 C10.04254356 45.99954746 10.04080783 48.00041636 10 50 C8.06444577 51.93555423 4.76218175 51.30605899 2.1875 51.375 C0.94355469 51.42398438 -0.30039063 51.47296875 -1.58203125 51.5234375 C-5 51 -5 51 -7.18920898 48.90795898 C-9.43201767 45.30622051 -9.46244052 43.16838052 -9.390625 38.94921875 C-9.38496521 38.29041214 -9.37930542 37.63160553 -9.37347412 36.95283508 C-9.35121239 34.86362784 -9.3010433 32.77618227 -9.25 30.6875 C-9.22992144 29.26499886 -9.21167304 27.84247063 -9.1953125 26.41992188 C-9.15138359 22.9460492 -9.08243096 19.47319675 -9 16 C-10.65 16 -12.3 16 -14 16 C-14 14.35 -14 12.7 -14 11 C-12.35 11 -10.7 11 -9 11 C-9 8.03 -9 5.06 -9 2 C-5 0 -5 0 0 0 Z " fill="#215AA8" transform="translate(125,86)"/>
<path d="M0 0 C0 3.63 0 7.26 0 11 C3.63 10.67 7.26 10.34 11 10 C11 11.98 11 13.96 11 16 C7.37 16 3.74 16 0 16 C0.13837796 20.29194146 0.28695939 24.58346929 0.4375 28.875 C0.47681641 30.09832031 0.51613281 31.32164063 0.55664062 32.58203125 C0.61948242 34.33193359 0.61948242 34.33193359 0.68359375 36.1171875 C0.72025146 37.19597168 0.75690918 38.27475586 0.79467773 39.38623047 C0.83376643 41.98069536 0.83376643 41.98069536 2 44 C4.97 44 7.94 44 11 44 C11.04254356 45.99954746 11.04080783 48.00041636 11 50 C9.07617259 51.92382741 5.74338341 51.21841339 3.1875 51.25 C1.94355469 51.27578125 0.69960937 51.3015625 -0.58203125 51.328125 C-4.17160077 50.98352633 -5.52749478 50.56230565 -8 48 C-11.13152052 38.60543843 -8.83880735 25.72117809 -8 16 C-9.65 16 -11.3 16 -13 16 C-13 14.35 -13 12.7 -13 11 C-11.68 11 -10.36 11 -9 11 C-9 8.03 -9 5.06 -9 2 C-5.62902617 0.50178941 -3.79557881 0 0 0 Z " fill="#215AA8" transform="translate(96,86)"/>
<path d="M0 0 C2.97 0 5.94 0 9 0 C9 18.81 9 37.62 9 57 C6.03 57 3.06 57 0 57 C0 38.19 0 19.38 0 0 Z " fill="#215AA8" transform="translate(183,80)"/>
<path d="M0 0 C0.66 0 1.32 0 2 0 C1.7644043 2.37182617 1.7644043 2.37182617 1 5 C-0.81713867 6.21606445 -0.81713867 6.21606445 -3.23046875 7.05078125 C-4.58857666 7.531521 -4.58857666 7.531521 -5.97412109 8.02197266 C-6.97266113 8.34472168 -7.97120117 8.6674707 -9 9 C-10.04881348 9.34466309 -11.09762695 9.68932617 -12.17822266 10.04443359 C-15.54719179 11.12435245 -18.92672618 12.16156626 -22.3125 13.1875 C-24.04209961 13.72020508 -24.04209961 13.72020508 -25.80664062 14.26367188 C-30.5203445 15.70374257 -35.14794944 17.10656607 -40 18 C-39.51586914 16.19995117 -39.51586914 16.19995117 -38 14 C-35.2320437 12.7481727 -32.61828046 11.74116776 -29.74609375 10.80078125 C-28.93004166 10.52026413 -28.11398956 10.23974701 -27.27320862 9.95072937 C-24.66581634 9.05736618 -22.05214903 8.18436983 -19.4375 7.3125 C-16.82081723 6.42588317 -14.20557215 5.53518926 -11.59107971 4.64213562 C-9.96337452 4.08768839 -8.33411527 3.53777964 -6.70323181 2.99275208 C-3.07001236 1.9993478 -3.07001236 1.9993478 0 0 Z " fill="#215AA8" transform="translate(125,6)"/>
<path d="M0 0 C2.33333333 0.33333333 4.66666667 0.66666667 7 1 C7.33 0.67 7.66 0.34 8 0 C10.9375 -0.1875 10.9375 -0.1875 14 0 C14.66 0.66 15.32 1.32 16 2 C15.625 4.625 15.625 4.625 15 7 C11.846632 7.70074844 9.27275026 8 6 8 C5.154375 8.20625 4.30875 8.4125 3.4375 8.625 C1 9 1 9 -2 7 C-1.125 1.125 -1.125 1.125 0 0 Z " fill="#215AA8" transform="translate(109,40)"/>
<path d="M0 0 C0 0.66 0 1.32 0 2 C-5.42771138 6.5677514 -12.16864661 8.73632081 -18.8125 10.875 C-19.75287109 11.1946875 -20.69324219 11.514375 -21.66210938 11.84375 C-28.61262763 14.12912412 -28.61262763 14.12912412 -32 13 C-27.33655179 8.49840682 -21.81075368 6.87645688 -15.8125 4.8125 C-13.81874192 4.1114402 -11.82523917 3.40965371 -9.83203125 2.70703125 C-8.95264893 2.4025708 -8.0732666 2.09811035 -7.16723633 1.78442383 C-2.23716153 0 -2.23716153 0 0 0 Z " fill="#215AA8" transform="translate(197,3)"/>
<path d="M0 0 C1.5625 1.0625 1.5625 1.0625 3 3 C2.6875 6.6875 2.6875 6.6875 2 10 C-2.76052962 11.97387813 -5.96488101 12.0070238 -11 11 C-11.1875 7.625 -11.1875 7.625 -11 4 C-10.01 3.34 -9.02 2.68 -8 2 C-8 3.65 -8 5.3 -8 7 C-7.34 7 -6.68 7 -6 7 C-5.67 5.02 -5.34 3.04 -5 1 C-4.34 1 -3.68 1 -3 1 C-2.87625 1.969375 -2.7525 2.93875 -2.625 3.9375 C-2.41875 4.948125 -2.2125 5.95875 -2 7 C-1.34 7.33 -0.68 7.66 0 8 C-0.2784375 6.2984375 -0.2784375 6.2984375 -0.5625 4.5625 C-0.706875 3.386875 -0.85125 2.21125 -1 1 C-0.67 0.67 -0.34 0.34 0 0 Z " fill="#215AA8" transform="translate(114,21)"/>
<path d="M0 0 C2.4375 0.6875 2.4375 0.6875 5 2 C6.0625 4.375 6.0625 4.375 6 7 C4.0625 9.3125 4.0625 9.3125 2 11 C0.35 9.35 -1.3 7.7 -3 6 C-1.125 1.125 -1.125 1.125 0 0 Z " fill="#215AA8" transform="translate(188,19)"/>
<path d="M0 0 C1.32 0.33 2.64 0.66 4 1 C5.45295405 9.03501094 5.45295405 9.03501094 3.5625 13.0625 C3.046875 13.701875 2.53125 14.34125 2 15 C0.58365167 12.16730334 0.6536995 9.52533562 0.4375 6.375 C0.35371094 5.18648437 0.26992187 3.99796875 0.18359375 2.7734375 C0.12300781 1.85820313 0.06242187 0.94296875 0 0 Z " fill="#215AA8" transform="translate(64,3)"/>
</svg>
