<?xml version="1.0" encoding="UTF-8"?>
<svg version="1.1" xmlns="http://www.w3.org/2000/svg" width="300" height="130">
<path d="M0 0 C2.5625 0.5 2.5625 0.5 4.1875 2.4375 C5.68291949 5.76820704 6.79056395 9.1087606 7.81640625 12.609375 C8.39631277 14.6951665 8.39631277 14.6951665 10.5625 15.5 C13.04082659 15.65626576 15.49561331 15.75813198 17.9765625 15.81640625 C19.07102188 15.8475779 19.07102188 15.8475779 20.18759155 15.87937927 C22.52079763 15.94481917 24.85411721 16.00373368 27.1875 16.0625 C28.76824095 16.10569053 30.34897039 16.14930499 31.9296875 16.19335938 C35.80717504 16.30049481 39.68477685 16.40177782 43.5625 16.5 C43.5625 18.48 43.5625 20.46 43.5625 22.5 C38.66957468 22.59911652 33.77723779 22.67158399 28.88354492 22.71972656 C27.22002987 22.73980207 25.55658504 22.76706876 23.89331055 22.80175781 C21.4977076 22.85045766 19.10304008 22.87300856 16.70703125 22.890625 C15.59736748 22.92159271 15.59736748 22.92159271 14.46528625 22.95318604 C10.86069574 22.95474102 8.75827414 22.62101981 5.66674805 20.70996094 C2.84891926 17.7505705 1.95310614 15.30586944 0.5625 11.5 C0.42150879 12.17579102 0.28051758 12.85158203 0.13525391 13.54785156 C-0.50830028 16.61646127 -1.16030455 19.6832158 -1.8125 22.75 C-2.03421875 23.81347656 -2.2559375 24.87695312 -2.484375 25.97265625 C-2.70351562 26.99746094 -2.92265625 28.02226563 -3.1484375 29.078125 C-3.34743652 30.02075195 -3.54643555 30.96337891 -3.75146484 31.93457031 C-4.39645853 34.34652537 -5.23221861 36.32242842 -6.4375 38.5 C-9.25 38.8125 -9.25 38.8125 -12.4375 38.5 C-15.56204859 34.50057781 -16.51269516 30.03057047 -17.625 25.1875 C-17.80224609 24.44693359 -17.97949219 23.70636719 -18.16210938 22.94335938 C-18.59480953 21.13069658 -19.01720716 19.31557973 -19.4375 17.5 C-21.58754862 21.5590604 -23.01701388 25.81144522 -24.53515625 30.13671875 C-25.4375 32.5 -25.4375 32.5 -26.4375 33.5 C-28.77694736 33.21269945 -31.1114143 32.88063221 -33.4375 32.5 C-33.96150391 31.10974609 -33.96150391 31.10974609 -34.49609375 29.69140625 C-34.95113281 28.49386719 -35.40617187 27.29632813 -35.875 26.0625 C-36.32746094 24.86753906 -36.77992188 23.67257813 -37.24609375 22.44140625 C-38.1519826 19.65554277 -38.1519826 19.65554277 -39.4375 18.5 C-39.63085938 19.12648438 -39.82421875 19.75296875 -40.0234375 20.3984375 C-40.28382813 21.21570313 -40.54421875 22.03296875 -40.8125 22.875 C-41.06773437 23.68710938 -41.32296875 24.49921875 -41.5859375 25.3359375 C-42.4375 27.5 -42.4375 27.5 -44.4375 29.5 C-46.875 29.875 -46.875 29.875 -49.4375 29.5 C-51.125 27.6875 -51.125 27.6875 -52.4375 25.5 C-53.4275 24.015 -53.4275 24.015 -54.4375 22.5 C-54.97375 23.325 -55.51 24.15 -56.0625 25 C-58.4375 27.5 -58.4375 27.5 -61.4375 28.0625 C-64.4375 27.5 -64.4375 27.5 -66.14337158 25.4989624 C-69.30749525 22.74193965 -72.13963222 22.92629481 -76.14355469 22.95410156 C-76.91467087 22.94376389 -77.68578705 22.93342621 -78.48027039 22.92277527 C-81.02351795 22.89332889 -83.56597031 22.89184776 -86.109375 22.890625 C-87.87487304 22.87564453 -89.64035706 22.85891766 -91.40582275 22.84051514 C-96.0484074 22.79681418 -100.69080299 22.7768365 -105.33355713 22.76177979 C-110.07274568 22.74221856 -114.81172977 22.70024746 -119.55078125 22.66015625 C-128.84629114 22.58482446 -138.14175534 22.53455099 -147.4375 22.5 C-147.4375 20.52 -147.4375 18.54 -147.4375 16.5 C-137.12781181 16.38398819 -126.81827971 16.29522482 -116.50807095 16.24093914 C-111.72023345 16.21488038 -106.93284358 16.17955063 -102.14526367 16.12280273 C-97.52219831 16.06834975 -92.89956263 16.03855148 -88.27620125 16.02561378 C-86.51516013 16.01639769 -84.75414169 15.99840043 -82.99328423 15.97134972 C-80.52032112 15.93488125 -78.04911783 15.93006185 -75.57592773 15.93237305 C-74.49158951 15.90540848 -74.49158951 15.90540848 -73.38534546 15.87789917 C-67.54589396 15.93668516 -64.78464433 17.9184583 -60.4375 21.5 C-60.14875 20.55125 -59.86 19.6025 -59.5625 18.625 C-58.4375 15.5 -58.4375 15.5 -56.4375 13.5 C-54 13.125 -54 13.125 -51.4375 13.5 C-49.23887805 15.77714416 -48.44442101 17.47923697 -47.4375 20.5 C-47.13457031 19.78972656 -46.83164063 19.07945313 -46.51953125 18.34765625 C-46.10058594 17.42855469 -45.68164062 16.50945312 -45.25 15.5625 C-44.64091797 14.18771484 -44.64091797 14.18771484 -44.01953125 12.78515625 C-42.4375 10.5 -42.4375 10.5 -39.76171875 9.68359375 C-38.99472656 9.62300781 -38.22773438 9.56242187 -37.4375 9.5 C-32.99483335 14.10133331 -31.39510013 19.55431026 -29.4375 25.5 C-29.09976563 24.36820313 -28.76203125 23.23640625 -28.4140625 22.0703125 C-27.96387362 20.58844078 -27.51333457 19.10667541 -27.0625 17.625 C-26.84078125 16.87863281 -26.6190625 16.13226563 -26.390625 15.36328125 C-24.6640625 9.7265625 -24.6640625 9.7265625 -22.4375 7.5 C-19.8125 7.375 -19.8125 7.375 -17.4375 7.5 C-14.23676386 13.23925102 -12.48722972 18.64673718 -11.05078125 25.05859375 C-10.67673714 27.43193861 -10.67673714 27.43193861 -9.4375 28.5 C-9.22601318 27.38757935 -9.22601318 27.38757935 -9.01025391 26.25268555 C-8.36804888 22.89623069 -7.71540463 19.54188922 -7.0625 16.1875 C-6.84078125 15.02025391 -6.6190625 13.85300781 -6.390625 12.65039062 C-6.17148438 11.53212891 -5.95234375 10.41386719 -5.7265625 9.26171875 C-5.52756348 8.23006592 -5.32856445 7.19841309 -5.12353516 6.13549805 C-4.23260872 2.71288209 -3.64310167 0.74730291 0 0 Z " fill="#3B8DC4" transform="translate(256.4375,55.5)"/>
<path d="M0 0 C1.98 0 3.96 0 6 0 C6 0.66 6 1.32 6 2 C6.515625 1.67 7.03125 1.34 7.5625 1 C10.85337305 -0.35010176 13.47151408 -0.25203471 17 0 C17.721875 0.37125 18.44375 0.7425 19.1875 1.125 C20.0846875 1.558125 20.0846875 1.558125 21 2 C22.35085807 1.36959957 23.68252676 0.69748583 25 0 C28.41471978 -0.42683997 30.24296832 -0.48199499 33.171875 1.3828125 C36.01510726 5.45325184 35.42599153 9.41700195 35.25 14.25 C35.23195312 15.18585937 35.21390625 16.12171875 35.1953125 17.0859375 C35.14825673 19.39167015 35.08253713 21.69530945 35 24 C33.02 24 31.04 24 29 24 C28.93941406 22.94039062 28.87882812 21.88078125 28.81640625 20.7890625 C28.73199873 19.40102779 28.64735083 18.01300768 28.5625 16.625 C28.52318359 15.92632812 28.48386719 15.22765625 28.44335938 14.5078125 C28.25719866 10.62639508 28.25719866 10.62639508 27 7 C24.24358584 7.49756092 24.24358584 7.49756092 22 9 C21.76346477 11.52596259 21.57826308 14.03107207 21.4375 16.5625 C21.39431641 17.27341797 21.35113281 17.98433594 21.30664062 18.71679688 C21.20028223 20.47761912 21.09961154 22.2387832 21 24 C18.69 24 16.38 24 14 24 C13.67 18.72 13.34 13.44 13 8 C12.01 7.67 11.02 7.34 10 7 C8.39273805 8.05838549 8.39273805 8.05838549 7 10 C6.41781668 13.4223884 6.41781668 13.4223884 6.3125 17.1875 C6.24675781 18.45980469 6.18101562 19.73210938 6.11328125 21.04296875 C6.07589844 22.01878906 6.03851562 22.99460937 6 24 C4.02 24 2.04 24 0 24 C0 16.08 0 8.16 0 0 Z " fill="#000000" transform="translate(1,44)"/>
<path d="M0 0 C3.13180809 1.62390049 5.24339744 3.00266026 7.375 5.8125 C8 8 8 8 8 15 C2.39 15 -3.22 15 -9 15 C-8.01 16.485 -8.01 16.485 -7 18 C-3.81005677 18.34673296 -1.73741432 18.39039582 1.125 16.875 C1.74375 16.58625 2.3625 16.2975 3 16 C5.25 16.875 5.25 16.875 7 18 C5.97427701 21.3051074 4.93092146 22.04006555 1.875 23.8125 C-2.45338247 25.45367835 -5.51707901 25.08457766 -10 24 C-13.05302356 22.40711814 -14.50725882 21.1685651 -15.8515625 17.98046875 C-16.97013853 14.02502218 -17.36398457 10.99139804 -15.8125 7.125 C-11.99021529 0.53485394 -7.65324656 -1.05611909 0 0 Z M-7.25 6.3125 C-7.8275 6.869375 -8.405 7.42625 -9 8 C-9 8.66 -9 9.32 -9 10 C-5.7 10 -2.4 10 1 10 C-0.48958333 6.02083333 -0.48958333 6.02083333 -2.875 5.0625 C-5.12789724 4.80870524 -5.12789724 4.80870524 -7.25 6.3125 Z " fill="#7E868D" transform="translate(198,44)"/>
<path d="M0 0 C3.58552881 1.63687185 4.79315055 2.68972583 7 6 C7.31884766 7.99291992 7.31884766 7.99291992 7.4140625 10.23046875 C7.45273438 11.03291016 7.49140625 11.83535156 7.53125 12.66210938 C7.5621875 13.49548828 7.593125 14.32886719 7.625 15.1875 C7.66367188 16.03248047 7.70234375 16.87746094 7.7421875 17.74804688 C7.83636279 19.83167524 7.91926675 21.91580753 8 24 C5 24 2 24 -1 24 C-2.093125 24.226875 -3.18625 24.45375 -4.3125 24.6875 C-8.7025596 25.05953895 -10.53181493 24.72500256 -14 22 C-15.08361707 19.27942948 -15.36885257 16.90398211 -15 14 C-13.15579697 11.5198649 -11.73717673 10.36858837 -9 9 C-6.3276379 8.86584528 -3.67749512 8.95681459 -1 9 C-1.33 8.01 -1.66 7.02 -2 6 C-5.46941546 6.45822468 -8.67395049 6.89131683 -12 8 C-12.66 6.35 -13.32 4.7 -14 3 C-8.96652223 -0.02008666 -5.72319081 -0.54506579 0 0 Z M-8 15 C-7.67 16.32 -7.34 17.64 -7 19 C-4.58354218 19.16687448 -4.58354218 19.16687448 -2 19 C-1.34 18.34 -0.68 17.68 0 17 C0 16.01 0 15.02 0 14 C-4.17810069 12.81068813 -4.17810069 12.81068813 -8 15 Z " fill="#7E868D" transform="translate(146,44)"/>
<path d="M0 0 C2.31 0 4.62 0 7 0 C7.33 5.61 7.66 11.22 8 17 C8.99 17.33 9.98 17.66 11 18 C11.99 17.34 12.98 16.68 14 16 C14.38394667 13.22737745 14.60342248 10.65676472 14.6875 7.875 C14.72166016 7.12089844 14.75582031 6.36679687 14.79101562 5.58984375 C14.87354278 3.72708799 14.93844711 1.86356674 15 0 C17.31 0 19.62 0 22 0 C22.33 7.92 22.66 15.84 23 24 C17 24 17 24 15 23 C14.278125 23.33 13.55625 23.66 12.8125 24 C9.11337267 25.31524527 6.77524806 24.97876802 3 24 C0.9934489 21.91733135 0.08721179 20.58641336 -0.34057617 17.70996094 C-0.32486572 16.89301758 -0.30915527 16.07607422 -0.29296875 15.234375 C-0.28330078 14.34492187 -0.27363281 13.45546875 -0.26367188 12.5390625 C-0.23853516 11.61867188 -0.21339844 10.69828125 -0.1875 9.75 C-0.16719727 8.34621094 -0.16719727 8.34621094 -0.14648438 6.9140625 C-0.11119954 4.60878673 -0.06190281 2.3046894 0 0 Z " fill="#000000" transform="translate(40,44)"/>
<path d="M0 0 C1.98 0 3.96 0 6 0 C6.33 0.66 6.66 1.32 7 2 C7.515625 1.67 8.03125 1.34 8.5625 1 C11.84447094 -0.34644962 14.48432783 -0.25568525 18 0 C21 2 21 2 22 5 C22.0806622 6.48123547 22.10761193 7.96582204 22.09765625 9.44921875 C22.09443359 10.29677734 22.09121094 11.14433594 22.08789062 12.01757812 C22.07951172 12.89865234 22.07113281 13.77972656 22.0625 14.6875 C22.05798828 15.58017578 22.05347656 16.47285156 22.04882812 17.39257812 C22.03704983 19.59511987 22.02060164 21.79752599 22 24 C19.69 24 17.38 24 15 24 C14.67 18.72 14.34 13.44 14 8 C13.01 7.67 12.02 7.34 11 7 C9.39273805 8.05838549 9.39273805 8.05838549 8 10 C7.41781668 13.4223884 7.41781668 13.4223884 7.3125 17.1875 C7.24675781 18.45980469 7.18101562 19.73210938 7.11328125 21.04296875 C7.07589844 22.01878906 7.03851563 22.99460937 7 24 C4.69 24 2.38 24 0 24 C0 16.08 0 8.16 0 0 Z " fill="#7E868D" transform="translate(157,44)"/>
<path d="M0 0 C2.31 0 4.62 0 7 0 C7 2.31 7 4.62 7 7 C8.65 7 10.3 7 12 7 C12 8.98 12 10.96 12 13 C10.35 13 8.7 13 7 13 C7 16.96 7 20.92 7 25 C8.65 24.67 10.3 24.34 12 24 C12.33 25.98 12.66 27.96 13 30 C9.41958098 31.53446529 7.54228904 32.12278242 3.6875 31.25 C1 30 1 30 0 28 C-0.0716735 25.44842345 -0.09308442 22.92527029 -0.0625 20.375 C-0.05798828 19.66859375 -0.05347656 18.9621875 -0.04882812 18.234375 C-0.03703875 16.48954725 -0.01910324 14.744763 0 13 C-0.99 13 -1.98 13 -3 13 C-3 11.02 -3 9.04 -3 7 C-2.01 7 -1.02 7 0 7 C0 4.69 0 2.38 0 0 Z " fill="#000000" transform="translate(80,37)"/>
<path d="M0 0 C1.98 0 3.96 0 6 0 C6 8.58 6 17.16 6 26 C11.28 26 16.56 26 22 26 C22 27.98 22 29.96 22 32 C14.74 32 7.48 32 0 32 C0 21.44 0 10.88 0 0 Z " fill="#7E868D" transform="translate(108,36)"/>
<path d="M0 0 C2.31 0 4.62 0 7 0 C7 8.58 7 17.16 7 26 C8.65 26 10.3 26 12 26 C12 27.98 12 29.96 12 32 C8.7 32 5.4 32 2 32 C-0.08873749 27.82252502 -0.23669725 26.03669747 -0.1953125 21.484375 C-0.18886719 20.23398437 -0.18242188 18.98359375 -0.17578125 17.6953125 C-0.15902344 16.39335938 -0.14226562 15.09140625 -0.125 13.75 C-0.11597656 12.43257812 -0.10695313 11.11515625 -0.09765625 9.7578125 C-0.07408533 6.50502538 -0.04118022 3.25260411 0 0 Z " fill="#000000" transform="translate(66,36)"/>
<path d="M0 0 C2.31 0 4.62 0 7 0 C7 7.92 7 15.84 7 24 C4.69 24 2.38 24 0 24 C0 16.08 0 8.16 0 0 Z " fill="#000000" transform="translate(96,44)"/>
<path d="M0 0 C2.31 0 4.62 0 7 0 C7 1.98 7 3.96 7 6 C4.69 6 2.38 6 0 6 C0 4.02 0 2.04 0 0 Z " fill="#000000" transform="translate(96,36)"/>
</svg>
