<?xml version="1.0" encoding="UTF-8"?>
<svg version="1.1" xmlns="http://www.w3.org/2000/svg" width="467" height="136">
<path d="M0 0 C3.70342384 2.11624219 5.37272301 4.1299108 7 8 C7.5822518 12.22699682 7.44569111 15.92095837 5.8125 19.875 C3.7541938 22.28818658 1.84431627 23.61430746 -1 25 C-1.66 25 -2.32 25 -3 25 C-3 27.97 -3 30.94 -3 34 C-1.96875 34.0825 -0.9375 34.165 0.125 34.25 C7.0862498 35.59733867 10.95331044 39.49200587 15 45 C16.83392158 48.77609547 17.27134404 51.81656724 17.25 56 C17.25773437 57.5159375 17.25773437 57.5159375 17.265625 59.0625 C16.99363426 62.0703976 16.26321118 64.27306793 15 67 C15.804375 67.309375 15.804375 67.309375 16.625 67.625 C19.00129616 69.00075041 19.83034734 70.03052448 21.5 72.125 C23.68510856 74.44946498 24.60735151 74.97033562 27.84375 75.21484375 C29.9455761 75.11339422 32.0471527 75.00663453 34.1484375 74.89453125 C37.1777428 75.00657405 38.31798064 75.35778954 40.625 77.25 C43.78853538 80.91304097 44.83910226 82.55192038 45.375 87.375 C44.85731443 92.37929389 42.8830968 95.31322606 39.1640625 98.64453125 C35.34759311 101.03499132 31.34643702 100.62385768 27 100 C22.87994656 97.93997328 20.68991705 96.25580027 19 92 C18.8046875 89.74609375 18.8046875 89.74609375 18.875 87.4375 C18.89304687 86.67308594 18.91109375 85.90867187 18.9296875 85.12109375 C18.95289063 84.42113281 18.97609375 83.72117187 19 83 C19.34613723 79.93950063 19.34613723 79.93950063 17.25 78.17578125 C16.5075 77.56089844 15.765 76.94601563 15 76.3125 C14.2575 75.68988281 13.515 75.06726563 12.75 74.42578125 C11.88375 73.72001953 11.88375 73.72001953 11 73 C10.45472656 73.34933594 9.90945312 73.69867188 9.34765625 74.05859375 C2.55019672 78.16030865 -3.29677304 79.96265203 -11.1875 78.3125 C-14.9452114 77.21961979 -17.82820578 75.28664234 -21 73 C-25.38829131 71.53723623 -28.22988941 73.66288714 -32.19140625 75.55859375 C-33.01011703 75.94056412 -33.82882782 76.32253448 -34.67234802 76.71607971 C-37.30681043 77.94738706 -39.93475064 79.19193958 -42.5625 80.4375 C-45.12757104 81.64326531 -47.69392624 82.84622049 -50.26132202 84.04702759 C-51.96587104 84.84694918 -53.66789063 85.65228284 -55.36734009 86.46298218 C-59.60660336 88.47410163 -63.84785197 90.36698613 -68.22216797 92.06689453 C-69.05191635 92.39979996 -69.88166473 92.73270538 -70.73655701 93.07569885 C-72.30087895 93.69698725 -73.8765329 94.2907482 -75.46376038 94.85093689 C-77.62583953 95.72347699 -79.24419938 96.46119214 -81 98 C-81.9100664 100.31956151 -82.32030055 102.39893753 -82.60035706 104.87156677 C-83.15024694 107.80019074 -84.61132069 109.47991164 -87.02734375 111.18359375 C-91.26366279 112.93684262 -95.55021623 112.84506279 -100 112 C-103.16702888 110.32406254 -105.37374246 108.25251507 -107 105 C-107.50260166 99.88335036 -107.84102072 95.47178626 -105.25 90.9375 C-101.88413471 88.039116 -99.15194571 86.70429744 -94.6875 86.625 C-93.96949219 86.59664063 -93.25148438 86.56828125 -92.51171875 86.5390625 C-90 87 -90 87 -86.89746094 89.24658203 C-84.63727073 90.55724094 -83.54672408 91.0868045 -80.9412384 90.67312622 C-78.57982812 89.75634557 -76.37523304 88.68674356 -74.12890625 87.515625 C-73.28891586 87.10721375 -72.44892548 86.69880249 -71.58348083 86.27801514 C-68.89521714 84.96281721 -66.22958382 83.60755122 -63.5625 82.25 C-61.80407393 81.38139746 -60.04431681 80.51548406 -58.28320312 79.65234375 C-53.99600145 77.54283731 -49.72633631 75.40058857 -45.46270752 73.24389648 C-41.55330035 71.26928204 -37.63360609 69.31533636 -33.71484375 67.359375 C-31.47635783 66.23999195 -29.23818769 65.11997928 -27 64 C-27.15984375 63.41734375 -27.3196875 62.8346875 -27.484375 62.234375 C-29.00475882 55.64604513 -28.05088466 49.92954196 -25 44 C-21.5666854 38.89907546 -17.73505528 36.03966401 -12 34 C-11.01 34 -10.02 34 -9 34 C-9 31.03 -9 28.06 -9 25 C-9.7425 24.773125 -10.485 24.54625 -11.25 24.3125 C-14.7200344 22.65634722 -16.02692125 21.31195362 -18 18 C-19.13253331 13.75492618 -19.52259162 10.30647904 -17.875 6.1875 C-12.49842396 -0.08517205 -8.16213156 -1.2273882 0 0 Z " fill="#BBBCC0" transform="translate(114,11)"/>
<path d="M0 0 C5.66666667 0 11.33333333 0 17 0 C18.7634375 -0.061875 18.7634375 -0.061875 20.5625 -0.125 C24 0 24 0 27 2 C28.18681726 5.56045177 28.09689832 8.43808337 28.0625 12.1875 C28.05347656 13.45980469 28.04445313 14.73210937 28.03515625 16.04296875 C28.02355469 17.01878906 28.01195312 17.99460937 28 19 C26.35 19 24.7 19 23 19 C22.67 14.05 22.34 9.1 22 4 C20.68 3.67 19.36 3.34 18 3 C16.00383446 4.99616554 16.59016573 8.81701963 16.4375 11.5625 C16.39431641 12.27341797 16.35113281 12.98433594 16.30664062 13.71679688 C16.20028223 15.47761912 16.09961154 17.2387832 16 19 C14.68 19 13.36 19 12 19 C11.92652344 17.64455078 11.92652344 17.64455078 11.8515625 16.26171875 C11.77679688 15.08222656 11.70203125 13.90273437 11.625 12.6875 C11.55539062 11.51574219 11.48578125 10.34398438 11.4140625 9.13671875 C11.21386253 5.84300113 11.21386253 5.84300113 9 3 C7.68 3.33 6.36 3.66 5 4 C4.67 8.95 4.34 13.9 4 19 C2.68 19 1.36 19 0 19 C0 12.73 0 6.46 0 0 Z " fill="#0083A9" transform="translate(352,59)"/>
<path d="M0 0 C3.78796121 3.59856315 5.26636409 6.57266585 5.9375 11.75 C5.40441645 16.16697796 4.20648591 19.80771199 1.5 23.375 C-3.81705424 27.36735859 -9.10076672 27.14672325 -15.5 26.375 C-19.44723665 24.57450609 -20.98861393 23.1420791 -23.375 19.5625 C-25.11231079 14.64011944 -25.1605574 11.05942137 -23.25 6.1875 C-17.95155204 -2.32786279 -9.08932599 -4.22004421 0 0 Z M-17.5 3.375 C-20.13456197 7.5663486 -20.1940955 12.56711897 -19.5 17.375 C-17.8754935 20.56599492 -16.48058877 22.59729167 -13.6875 24.8125 C-10.3298416 25.67589787 -7.84038557 25.21009639 -4.5 24.375 C-1.63057887 22.10966753 -0.66092388 20.85777163 0.5 17.375 C0.90162118 12.81814431 1.04057047 8.71220064 -0.6875 4.4375 C-2.78537683 2.05026085 -4.61651572 0.71124881 -7.5 -0.625 C-12.29804807 -0.625 -13.81330029 0.40961111 -17.5 3.375 Z " fill="#0083A9" transform="translate(190.5,51.625)"/>
<path d="M0 0 C1.76923828 0.04060547 1.76923828 0.04060547 3.57421875 0.08203125 C4.47785156 0.11683594 5.38148438 0.15164062 6.3125 0.1875 C5.6525 0.8475 4.9925 1.5075 4.3125 2.1875 C4.6425 2.5175 4.9725 2.8475 5.3125 3.1875 C5.76482816 8.38927384 5.76482816 8.38927384 4.25 11.0625 C1.31022876 12.76946395 -1.36620803 12.37549766 -4.6875 12.1875 C-4.6875 12.8475 -4.6875 13.5075 -4.6875 14.1875 C-3.98882812 14.15269531 -3.29015625 14.11789063 -2.5703125 14.08203125 C-1.20519531 14.04142578 -1.20519531 14.04142578 0.1875 14 C1.09242188 13.96519531 1.99734375 13.93039063 2.9296875 13.89453125 C4.10917969 14.03955078 4.10917969 14.03955078 5.3125 14.1875 C7.3125 17.1875 7.3125 17.1875 7.125 20.1875 C6.27396618 23.32977871 5.81816429 24.24433177 3.3125 26.1875 C-1.05078647 27.02093674 -4.777666 26.63313298 -8.75 24.6875 C-9.389375 24.1925 -10.02875 23.6975 -10.6875 23.1875 C-10.18088633 20.31668918 -9.53984525 17.79893487 -8.5 15.0625 C-8.231875 14.11375 -7.96375 13.165 -7.6875 12.1875 C-8.3475 11.1975 -9.0075 10.2075 -9.6875 9.1875 C-10.22700641 4.00823847 -10.22700641 4.00823847 -8.5859375 1.51171875 C-5.75094661 -0.4657749 -3.40592252 -0.10116602 0 0 Z M-3.6875 1.1875 C-6.03723818 3.08505144 -6.03723818 3.08505144 -5.8125 6.3125 C-5.77125 7.26125 -5.73 8.21 -5.6875 9.1875 C-3.7075 10.1775 -3.7075 10.1775 -1.6875 11.1875 C-0.6975 10.5275 0.2925 9.8675 1.3125 9.1875 C1.72916667 6.1875 1.72916667 6.1875 1.3125 3.1875 C0.6525 2.5275 -0.0075 1.8675 -0.6875 1.1875 C-1.6775 1.1875 -2.6675 1.1875 -3.6875 1.1875 Z M-7.6875 20.1875 C-7.12387698 22.23586882 -7.12387698 22.23586882 -5.6875 24.1875 C-2.8278994 25.35860449 -2.8278994 25.35860449 0.3125 25.1875 C2.71045381 23.37462805 2.71045381 23.37462805 4.3125 21.1875 C2.56315102 19.10416921 2.56315102 19.10416921 0.3125 17.1875 C-3.95576873 17.1875 -4.62632432 17.56363513 -7.6875 20.1875 Z " fill="#0083A9" transform="translate(250.6875,59.8125)"/>
<path d="M0 0 C1.32 0 2.64 0 4 0 C4.33 3.96 4.66 7.92 5 12 C5.66 11.67 6.32 11.34 7 11 C13.16562108 10.42910916 13.16562108 10.42910916 16.375 12.625 C18.37108249 15.54235134 18.8560483 17.47318331 19 21 C17.86032313 25.4551005 16.90337969 26.07246523 13 29 C8.71 29 4.42 29 0 29 C0 19.43 0 9.86 0 0 Z M5.8125 13.5 C3.5969566 16.55592194 3.42821798 18.39686829 3.59375 22.09375 C4.2020539 24.94809908 5.71969696 26.28977272 8 28 C11.72614153 26.88145414 11.72614153 26.88145414 14 24 C14.2352732 21.89145964 14.2352732 21.89145964 14.25 19.5625 C14.27578125 18.78003906 14.3015625 17.99757813 14.328125 17.19140625 C14.16552671 14.9295507 14.16552671 14.9295507 12.671875 13.21484375 C9.96780766 11.24997239 8.47444694 11.67466495 5.8125 13.5 Z " fill="#0083A9" transform="translate(199,49)"/>
<path d="M0 0 C1.32 0 2.64 0 4 0 C4.33 3.63 4.66 7.26 5 11 C6.258125 10.938125 7.51625 10.87625 8.8125 10.8125 C11.29464941 10.69042708 12.59725742 10.76266955 14.75 12.03125 C16.6852623 15.07928812 16.31438487 18.20304613 16.1875 21.6875 C16.16719727 22.7403418 16.16719727 22.7403418 16.14648438 23.81445312 C16.11120182 25.54329829 16.05739583 27.27174765 16 29 C14.68 29 13.36 29 12 29 C11.67 23.72 11.34 18.44 11 13 C9.02 13.33 7.04 13.66 5 14 C3.9458482 17.16245541 3.68724328 19.86948218 3.4375 23.1875 C3.35371094 24.27417969 3.26992188 25.36085938 3.18359375 26.48046875 C3.12300781 27.31191406 3.06242187 28.14335938 3 29 C2.01 29 1.02 29 0 29 C0 19.43 0 9.86 0 0 Z " fill="#0083A9" transform="translate(310,49)"/>
<path d="M0 0 C1.70736328 0.02320313 1.70736328 0.02320313 3.44921875 0.046875 C6.3125 0.25 6.3125 0.25 8.3125 1.25 C8.3125 2.57 8.3125 3.89 8.3125 5.25 C7.61125 4.940625 6.91 4.63125 6.1875 4.3125 C2.43040425 2.92400809 -0.89160515 1.83950975 -4.875 2.75 C-7.68575112 5.07613886 -8.88770245 7.77546968 -9.6875 11.25 C-9.88012012 15.65062884 -9.48608565 19.06691015 -7 22.75 C-4.07445909 24.64764816 -2.17903478 25.11307707 1.3125 25.25 C5.09309045 24.39703322 5.09309045 24.39703322 8.3125 23.25 C7.9825 24.24 7.6525 25.23 7.3125 26.25 C1.49130038 28.19039987 -4.58314714 28.18944324 -10.1875 25.6875 C-13.63378014 22.32737687 -15.60546651 19.12664114 -15.74609375 14.1953125 C-15.36519109 9.90002718 -14.37596206 6.61057757 -11.6875 3.25 C-7.71780238 0.31341441 -4.89257953 -0.11157536 0 0 Z " fill="#0083A9" transform="translate(296.6875,50.75)"/>
<path d="M0 0 C0.99 0 1.98 0 3 0 C3.99 3.3 4.98 6.6 6 10 C7.32 6.7 8.64 3.4 10 0 C10.99 0 11.98 0 13 0 C13.99 2.97 14.98 5.94 16 9 C17.32 6.03 18.64 3.06 20 0 C20.99 0.33 21.98 0.66 23 1 C21.35 5.95 19.7 10.9 18 16 C16.68 15.67 15.36 15.34 14 15 C13.34 12.03 12.68 9.06 12 6 C11.34 6 10.68 6 10 6 C9.34 8.97 8.68 11.94 8 15 C6.68 15.33 5.36 15.66 4 16 C3.32586789 14.08594633 2.6609668 12.16863974 2 10.25 C1.62875 9.18265625 1.2575 8.1153125 0.875 7.015625 C0 4 0 4 0 0 Z " fill="#909295" transform="translate(335,90)"/>
<path d="M0 0 C0.7940625 -0.01417969 1.588125 -0.02835938 2.40625 -0.04296875 C4.5 0.1875 4.5 0.1875 6.5 2.1875 C6.88872293 5.79202172 7.00781525 9.37819211 7.15625 13 C7.17271607 16.27835835 7.17271607 16.27835835 9.5 18.1875 C6.87438891 18.26824203 4.25124324 18.3278623 1.625 18.375 C0.50544922 18.41270508 0.50544922 18.41270508 -0.63671875 18.45117188 C-2.8046875 18.48046875 -2.8046875 18.48046875 -6.5 18.1875 C-8.5 15.1875 -8.5 15.1875 -8.625 12.6875 C-7.27361641 9.68442536 -6.59982489 9.52883833 -3.625 8.375 C-1.01462325 7.50326902 0.70540057 7.1875 3.5 7.1875 C2.51 5.5375 1.52 3.8875 0.5 2.1875 C-1.88564077 2.76334432 -4.16682784 3.40977595 -6.5 4.1875 C-6.5 3.1975 -6.5 2.2075 -6.5 1.1875 C-4.14653604 0.01076802 -2.6193967 0.02126134 0 0 Z M-3.5 11.1875 C-3.83 12.1775 -4.16 13.1675 -4.5 14.1875 C-3.51 15.6725 -3.51 15.6725 -2.5 17.1875 C0.03744315 16.64041273 0.03744315 16.64041273 2.5 15.1875 C3.39830839 12.13477535 3.39830839 12.13477535 3.5 9.1875 C0.36248779 9.1875 -0.89757586 9.53929805 -3.5 11.1875 Z " fill="#0083A9" transform="translate(421.5,59.8125)"/>
<path d="M0 0 C1.7109375 1.15625 1.7109375 1.15625 3 3 C3.33 4.98 3.66 6.96 4 9 C-0.62 9 -5.24 9 -10 9 C-9.34 11.31 -8.68 13.62 -8 16 C-2.555 15.505 -2.555 15.505 3 15 C2.01 16.485 2.01 16.485 1 18 C-3.64390113 18.91234164 -7.84497738 18.5313104 -12.125 16.5625 C-14.50168946 13.31435773 -14.72773338 11.15881869 -14.47265625 7.1953125 C-14 5 -14 5 -12.0625 1.9375 C-8.09244081 -0.5741701 -4.60159792 -1.03406695 0 0 Z M-9 3 C-9.72965366 5.56282742 -9.72965366 5.56282742 -10 8 C-7.03 8 -4.06 8 -1 8 C-1.33 6.02 -1.66 4.04 -2 2 C-5.48581856 0.7979936 -5.67992344 0.78661563 -9 3 Z " fill="#0083A9" transform="translate(344,60)"/>
<path d="M0 0 C1.7109375 1.15625 1.7109375 1.15625 3 3 C3.33 4.98 3.66 6.96 4 9 C-0.62 9 -5.24 9 -10 9 C-9.34 11.31 -8.68 13.62 -8 16 C-2.555 15.505 -2.555 15.505 3 15 C2.01 16.485 2.01 16.485 1 18 C-3.64390113 18.91234164 -7.84497738 18.5313104 -12.125 16.5625 C-14.50168946 13.31435773 -14.72773338 11.15881869 -14.47265625 7.1953125 C-14 5 -14 5 -12.0625 1.9375 C-8.09244081 -0.5741701 -4.60159792 -1.03406695 0 0 Z M-9 3 C-9.72965366 5.56282742 -9.72965366 5.56282742 -10 8 C-7.03 8 -4.06 8 -1 8 C-1.33 6.02 -1.66 4.04 -2 2 C-5.48581856 0.7979936 -5.67992344 0.78661563 -9 3 Z " fill="#0083A9" transform="translate(234,60)"/>
<path d="M0 0 C11.17203312 -0.60717571 11.17203312 -0.60717571 14.8125 2.0625 C16.36984782 5.9148867 16.15602509 8.02616377 15 12 C13.625 14.4375 13.625 14.4375 11 16 C7.26623014 16.32818438 3.7627917 16.17918056 0 16 C0 10.72 0 5.44 0 0 Z M3 1 C3 5.62 3 10.24 3 15 C8.01535052 14.67039784 8.01535052 14.67039784 12 12 C12.52700664 6.77452214 12.52700664 6.77452214 10.875 2 C8.47181373 0.52941176 8.47181373 0.52941176 3 1 Z " fill="#909295" transform="translate(166,90)"/>
<path d="M0 0 C1.32 0 2.64 0 4 0 C4 9.57 4 19.14 4 29 C2.68 29 1.36 29 0 29 C0 19.43 0 9.86 0 0 Z " fill="#0083A9" transform="translate(435,49)"/>
<path d="M0 0 C6.93359375 -0.09765625 6.93359375 -0.09765625 9 0 C10.89092493 1.89092493 10 5.47272105 10 8 C10.20625 8.9075 10.4125 9.815 10.625 10.75 C11 13 11 13 9 16 C5.96133201 16.41137202 3.07840297 16.13193156 0 16 C0 10.72 0 5.44 0 0 Z M3 1 C3 2.98 3 4.96 3 7 C4.32 6.67 5.64 6.34 7 6 C6.67 4.35 6.34 2.7 6 1 C5.01 1 4.02 1 3 1 Z M3 8 C3 10.31 3 12.62 3 15 C4.32 14.67 5.64 14.34 7 14 C7.6814823 12.10820797 7.6814823 12.10820797 8 10 C7.34 9.34 6.68 8.68 6 8 C5.01 8 4.02 8 3 8 Z " fill="#909295" transform="translate(239,90)"/>
<path d="M0 0 C0 0.99 0 1.98 0 3 C-2.31 2.67 -4.62 2.34 -7 2 C-7.04289755 3.93109581 -7.04289755 3.93109581 -6 6 C-4.2675 6.7115625 -4.2675 6.7115625 -2.5 7.4375 C1 9 1 9 2.1875 11.4375 C2 14 2 14 0.5625 16.3125 C-3.11812818 18.73632831 -5.64614582 18.29025695 -10 18 C-10 17.01 -10 16.02 -10 15 C-7.36 15.33 -4.72 15.66 -2 16 C-2.03955898 14.07690578 -2.03955898 14.07690578 -3 12 C-3.969375 11.525625 -4.93875 11.05125 -5.9375 10.5625 C-9 9 -9 9 -10.5625 6.5625 C-11 4 -11 4 -10.125 1.6875 C-6.83353274 -0.92631224 -4.12573831 -0.27054022 0 0 Z " fill="#0083A9" transform="translate(455,60)"/>
<path d="M0 0 C0.91007812 0.00902344 1.82015625 0.01804688 2.7578125 0.02734375 C3.45648438 0.03894531 4.15515625 0.05054688 4.875 0.0625 C4.875 1.3825 4.875 2.7025 4.875 4.0625 C4.318125 3.711875 3.76125 3.36125 3.1875 3 C0.25331087 1.81046387 -1.17088797 1.97414294 -4.125 3.0625 C-6.32925482 5.66752843 -6.11868181 7.24572761 -6 10.6875 C-5.45949255 14.02513714 -5.45949255 14.02513714 -3.5 15.5625 C-0.20135587 16.2569514 2.59250369 15.69374929 5.875 15.0625 C4.875 16.5625 4.875 16.5625 2.875 18.0625 C-1.8861244 18.6000463 -4.00479695 18.77752323 -8.0625 16.1875 C-10.50516629 13.67081351 -11.05089802 12.72941781 -11.4375 9.25 C-11.05335642 5.3317355 -9.83243683 3.84956733 -7.125 1.0625 C-4.60024538 -0.19987731 -2.81299534 -0.03606404 0 0 Z " fill="#0083A9" transform="translate(404.125,59.9375)"/>
<path d="M0 0 C2.01822917 0.06510417 4.03645833 0.13020833 6.0546875 0.1953125 C5.1796875 7.0703125 5.1796875 7.0703125 4.0546875 8.1953125 C5.0446875 9.1853125 6.0346875 10.1753125 7.0546875 11.1953125 C6.3946875 12.8453125 5.7346875 14.4953125 5.0546875 16.1953125 C-1.6953125 16.3203125 -1.6953125 16.3203125 -3.9453125 15.1953125 C-3.7596875 13.9784375 -3.5740625 12.7615625 -3.3828125 11.5078125 C-2.93992975 8.12634285 -3.25729444 5.53711449 -3.9453125 2.1953125 C-1.9453125 0.1953125 -1.9453125 0.1953125 0 0 Z M0.0546875 1.1953125 C-0.2753125 2.8453125 -0.6053125 4.4953125 -0.9453125 6.1953125 C0.0446875 6.1953125 1.0346875 6.1953125 2.0546875 6.1953125 C2.3846875 4.8753125 2.7146875 3.5553125 3.0546875 2.1953125 C2.0646875 1.8653125 1.0746875 1.5353125 0.0546875 1.1953125 Z M-1.9453125 11.1953125 C-1.9453125 12.1853125 -1.9453125 13.1753125 -1.9453125 14.1953125 C1.10381978 15.20642343 1.10381978 15.20642343 4.0546875 14.1953125 C4.0546875 13.2053125 4.0546875 12.2153125 4.0546875 11.1953125 C1.00555522 10.18420157 1.00555522 10.18420157 -1.9453125 11.1953125 Z " fill="#909295" transform="translate(221.9453125,94.8046875)"/>
<path d="M0 0 C0.99 0 1.98 0 3 0 C3 1.98 3 3.96 3 6 C3.969375 5.979375 4.93875 5.95875 5.9375 5.9375 C9 6 9 6 10 7 C10.07205511 8.68608966 10.08386068 10.37500659 10.0625 12.0625 C10.05347656 12.98160156 10.04445313 13.90070313 10.03515625 14.84765625 C10.02355469 15.55792969 10.01195312 16.26820312 10 17 C9.01 17 8.02 17 7 17 C6.67 14.03 6.34 11.06 6 8 C5.34 8 4.68 8 4 8 C3.67 10.97 3.34 13.94 3 17 C2.01 17 1.02 17 0 17 C0 11.39 0 5.78 0 0 Z " fill="#909295" transform="translate(414,89)"/>
<path d="M0 0 C0.99 0 1.98 0 3 0 C3 1.98 3 3.96 3 6 C3.969375 5.979375 4.93875 5.95875 5.9375 5.9375 C9 6 9 6 10 7 C10.07205511 8.68608966 10.08386068 10.37500659 10.0625 12.0625 C10.05347656 12.98160156 10.04445313 13.90070313 10.03515625 14.84765625 C10.02355469 15.55792969 10.01195312 16.26820312 10 17 C9.01 17 8.02 17 7 17 C6.67 14.03 6.34 11.06 6 8 C5.34 8 4.68 8 4 8 C3.67 10.97 3.34 13.94 3 17 C2.01 17 1.02 17 0 17 C0 11.39 0 5.78 0 0 Z " fill="#909295" transform="translate(374,89)"/>
<path d="M0 0 C6.8359375 -0.29296875 6.8359375 -0.29296875 9 0 C11.67927341 4.01891012 11.15601248 6.24161923 11 11 C10.01 11 9.02 11 8 11 C7.67 8.36 7.34 5.72 7 3 C6.01 3 5.02 3 4 3 C3.67 5.64 3.34 8.28 3 11 C2.01 11 1.02 11 0 11 C0 7.37 0 3.74 0 0 Z " fill="#909295" transform="translate(283,95)"/>
<path d="M0 0 C3.625 0.3125 3.625 0.3125 5.625 2 C6.88826211 4.92129364 6.64516252 6.33048647 5.625 9.3125 C3.625 11.3125 3.625 11.3125 0.1875 11.6875 C-3.375 11.3125 -3.375 11.3125 -5.4375 9.6875 C-6.375 7.3125 -6.375 7.3125 -5.625 4.125 C-3.95439914 0.36614807 -3.95439914 0.36614807 0 0 Z M-0.375 1.3125 C-2.72473818 3.21005144 -2.72473818 3.21005144 -2.5 6.4375 C-2.45875 7.38625 -2.4175 8.335 -2.375 9.3125 C-1.055 9.6425 0.265 9.9725 1.625 10.3125 C3.95891203 7.53135944 3.95891203 7.53135944 3.25 4.625 C3.04375 3.861875 2.8375 3.09875 2.625 2.3125 C1.635 1.9825 0.645 1.6525 -0.375 1.3125 Z " fill="#909295" transform="translate(189.375,94.6875)"/>
<path d="M0 0 C0.99 0 1.98 0 3 0 C3.33 2.97 3.66 5.94 4 9 C4.99 8.67 5.98 8.34 7 8 C7.33 5.36 7.66 2.72 8 0 C8.99 0 9.98 0 11 0 C11 3.63 11 7.26 11 11 C4.1640625 11.1953125 4.1640625 11.1953125 2 11 C0 9 0 9 -0.1953125 6.8359375 C-0.17210937 6.02382812 -0.14890625 5.21171875 -0.125 4.375 C-0.10695312 3.55773437 -0.08890625 2.74046875 -0.0703125 1.8984375 C-0.04710937 1.27195312 -0.02390625 0.64546875 0 0 Z " fill="#909295" transform="translate(253,95)"/>
<path d="M0 0 C1.32 0 2.64 0 4 0 C4 5.94 4 11.88 4 18 C2.68 18 1.36 18 0 18 C0 12.06 0 6.12 0 0 Z " fill="#0083A9" transform="translate(385,60)"/>
<path d="M0 0 C1.32 0 2.64 0 4 0 C4 5.94 4 11.88 4 18 C2.68 18 1.36 18 0 18 C0 12.06 0 6.12 0 0 Z " fill="#0083A9" transform="translate(261,60)"/>
<path d="M0 0 C6.93359375 -0.09765625 6.93359375 -0.09765625 9 0 C10 1 10 1 10.09765625 3.28515625 C10.08605469 4.20167969 10.07445312 5.11820312 10.0625 6.0625 C10.05347656 6.98160156 10.04445312 7.90070313 10.03515625 8.84765625 C10.02355469 9.55792969 10.01195312 10.26820312 10 11 C9.01 11 8.02 11 7 11 C6.67 8.03 6.34 5.06 6 2 C5.34 2 4.68 2 4 2 C3.67 4.97 3.34 7.94 3 11 C2.01 11 1.02 11 0 11 C0 7.37 0 3.74 0 0 Z " fill="#909295" transform="translate(205,95)"/>
<path d="M0 0 C2.97 0 5.94 0 9 0 C9 0.33 9 0.66 9 1 C7.02 1 5.04 1 3 1 C3 2.98 3 4.96 3 7 C4.98 7 6.96 7 9 7 C9 7.33 9 7.66 9 8 C7.02 8 5.04 8 3 8 C3 10.31 3 12.62 3 15 C4.98 15 6.96 15 9 15 C9 15.33 9 15.66 9 16 C6.03 16 3.06 16 0 16 C0 10.72 0 5.44 0 0 Z " fill="#909295" transform="translate(395,90)"/>
<path d="M0 0 C1.670625 0.061875 1.670625 0.061875 3.375 0.125 C4.035 1.775 4.695 3.425 5.375 5.125 C2.735 5.125 0.095 5.125 -2.625 5.125 C-1.965 6.445 -1.305 7.765 -0.625 9.125 C1.025 8.795 2.675 8.465 4.375 8.125 C4.045 9.115 3.715 10.105 3.375 11.125 C0 11.25 0 11.25 -3.625 11.125 C-5.625 9.125 -5.625 9.125 -5.875 5.625 C-5.52784563 0.76483889 -4.87441969 0.16808344 0 0 Z M-1.625 1.125 C-1.955 2.115 -2.285 3.105 -2.625 4.125 C-0.975 4.125 0.675 4.125 2.375 4.125 C1.715 3.135 1.055 2.145 0.375 1.125 C-0.285 1.125 -0.945 1.125 -1.625 1.125 Z " fill="#909295" transform="translate(301.625,94.875)"/>
<path d="M0 0 C0.33 0.99 0.66 1.98 1 3 C0.195625 2.814375 -0.60875 2.62875 -1.4375 2.4375 C-2.7059375 2.2209375 -2.7059375 2.2209375 -4 2 C-5.29633621 3.06645115 -5.29633621 3.06645115 -5.0625 5.5625 C-5.041875 6.366875 -5.02125 7.17125 -5 8 C-2.92446352 8.5534764 -1.15634036 9 1 9 C1 9.66 1 10.32 1 11 C-5.0546875 11.1953125 -5.0546875 11.1953125 -7 11 C-9 9 -9 9 -9.3125 5.5 C-9.209375 4.345 -9.10625 3.19 -9 2 C-5.5647952 -0.29013653 -4.014669 -0.17842973 0 0 Z " fill="#909295" transform="translate(443,95)"/>
<path d="M0 0 C0.99 0 1.98 0 3 0 C3 0.99 3 1.98 3 3 C3.66 3.33 4.32 3.66 5 4 C4.34 4 3.68 4 3 4 C3 6.97 3 9.94 3 13 C3.99 13.33 4.98 13.66 6 14 C4.33388095 14.042721 2.66617115 14.04063832 1 14 C-0.63717481 12.36282519 -0.39672144 10.37517442 -0.625 8.125 C-0.72039062 7.24070312 -0.81578125 6.35640625 -0.9140625 5.4453125 C-1 3 -1 3 0 0 Z " fill="#909295" transform="translate(407,92)"/>
<path d="M0 0 C0.99 0 1.98 0 3 0 C3 0.99 3 1.98 3 3 C3.66 3.33 4.32 3.66 5 4 C4.34 4 3.68 4 3 4 C3 6.97 3 9.94 3 13 C3.66 13.33 4.32 13.66 5 14 C3.35 13.67 1.7 13.34 0 13 C0 10.03 0 7.06 0 4 C-0.66 3.67 -1.32 3.34 -2 3 C-1.34 3 -0.68 3 0 3 C0 2.01 0 1.02 0 0 Z " fill="#909295" transform="translate(367,92)"/>
<path d="M0 0 C1.98 0 3.96 0 6 0 C6 0.66 6 1.32 6 2 C4.68 1.67 3.36 1.34 2 1 C2 1.99 2 2.98 2 4 C4.475 4.99 4.475 4.99 7 6 C6.125 9.875 6.125 9.875 5 11 C3.00041636 11.04080783 0.99954746 11.04254356 -1 11 C-1 10.67 -1 10.34 -1 10 C0.65 10 2.3 10 4 10 C3.33131686 6.88667752 3.33131686 6.88667752 0.9375 5.8125 C0.298125 5.544375 -0.34125 5.27625 -1 5 C-0.67 3.35 -0.34 1.7 0 0 Z " fill="#909295" transform="translate(447,95)"/>
<path d="M0 0 C1.98 0 3.96 0 6 0 C6 0.66 6 1.32 6 2 C4.68 2.33 3.36 2.66 2 3 C3.65 3.99 5.3 4.98 7 6 C6.125 9.875 6.125 9.875 5 11 C3.00041636 11.04080783 0.99954746 11.04254356 -1 11 C0.32 10.34 1.64 9.68 3 9 C3 8.34 3 7.68 3 7 C1.68 6.34 0.36 5.68 -1 5 C-0.67 3.35 -0.34 1.7 0 0 Z " fill="#909295" transform="translate(319,95)"/>
<path d="M0 0 C1.98 0 3.96 0 6 0 C6 0.66 6 1.32 6 2 C4.68 2.33 3.36 2.66 2 3 C3.65 3.99 5.3 4.98 7 6 C6.125 9.875 6.125 9.875 5 11 C3.00041636 11.04080783 0.99954746 11.04254356 -1 11 C0.32 10.34 1.64 9.68 3 9 C3 8.34 3 7.68 3 7 C1.68 6.34 0.36 5.68 -1 5 C-0.67 3.35 -0.34 1.7 0 0 Z " fill="#909295" transform="translate(267,95)"/>
<path d="M0 0 C1.2065625 0.0309375 1.2065625 0.0309375 2.4375 0.0625 C2.4375 0.7225 2.4375 1.3825 2.4375 2.0625 C1.4475 2.0625 0.4575 2.0625 -0.5625 2.0625 C-0.8925 2.7225 -1.2225 3.3825 -1.5625 4.0625 C0.9125 5.0525 0.9125 5.0525 3.4375 6.0625 C3.1075 7.7125 2.7775 9.3625 2.4375 11.0625 C0.1275 11.0625 -2.1825 11.0625 -4.5625 11.0625 C-4.5625 10.7325 -4.5625 10.4025 -4.5625 10.0625 C-3.758125 9.93875 -2.95375 9.815 -2.125 9.6875 C-1.279375 9.48125 -0.43375 9.275 0.4375 9.0625 C0.7675 8.4025 1.0975 7.7425 1.4375 7.0625 C-1.0375 6.0725 -1.0375 6.0725 -3.5625 5.0625 C-3.5625 0.08689024 -3.5625 0.08689024 0 0 Z " fill="#909295" transform="translate(312.5625,94.9375)"/>
<path d="M0 0 C4.68317784 1.73451031 7.79620379 5.59240757 10 10 C10.039992 11.99960012 10.04346799 14.00047242 10 16 C9.34 15.01 8.68 14.02 8 13 C7.525625 12.30003906 7.05125 11.60007812 6.5625 10.87890625 C6.046875 10.11449219 5.53125 9.35007812 5 8.5625 C4.484375 7.80066406 3.96875 7.03882813 3.4375 6.25390625 C2.13802764 4.21641833 1.03372333 2.18175261 0 0 Z " fill="#F7F7F8" transform="translate(116,51)"/>
<path d="M0 0 C0.99 0 1.98 0 3 0 C3 3.63 3 7.26 3 11 C2.01 11 1.02 11 0 11 C0 7.37 0 3.74 0 0 Z " fill="#909295" transform="translate(428,95)"/>
<path d="M0 0 C0.99 0 1.98 0 3 0 C3 3.63 3 7.26 3 11 C2.01 11 1.02 11 0 11 C0 7.37 0 3.74 0 0 Z " fill="#909295" transform="translate(360,95)"/>
<path d="M0 0 C0.99 0 1.98 0 3 0 C3 3.63 3 7.26 3 11 C2.01 11 1.02 11 0 11 C0 7.37 0 3.74 0 0 Z " fill="#909295" transform="translate(277,95)"/>
<path d="M0 0 C0.99 0 1.98 0 3 0 C3 3.63 3 7.26 3 11 C2.01 11 1.02 11 0 11 C0 7.37 0 3.74 0 0 Z " fill="#909295" transform="translate(198,95)"/>
<path d="M0 0 C3.63 0.66 7.26 1.32 11 2 C10.67 2.66 10.34 3.32 10 4 C3.375 4.25 3.375 4.25 0 2 C0 1.34 0 0.68 0 0 Z " fill="#E5E5E7" transform="translate(13,117)"/>
<path d="M0 0 C1.98 0.495 1.98 0.495 4 1 C3.67 1.99 3.34 2.98 3 4 C1.68 3.67 0.36 3.34 -1 3 C-0.67 2.01 -0.34 1.02 0 0 Z " fill="#0083A9" transform="translate(386,51)"/>
<path d="M0 0 C1.98 0.495 1.98 0.495 4 1 C3.67 1.99 3.34 2.98 3 4 C1.68 3.67 0.36 3.34 -1 3 C-0.67 2.01 -0.34 1.02 0 0 Z " fill="#0083A9" transform="translate(262,51)"/>
<path d="M0 0 C0.99 0 1.98 0 3 0 C3 0.66 3 1.32 3 2 C2.01 2 1.02 2 0 2 C0 1.34 0 0.68 0 0 Z " fill="#909295" transform="translate(428,90)"/>
<path d="M0 0 C0.99 0 1.98 0 3 0 C3 0.66 3 1.32 3 2 C2.01 2 1.02 2 0 2 C0 1.34 0 0.68 0 0 Z " fill="#909295" transform="translate(360,90)"/>
<path d="M0 0 C0.99 0 1.98 0 3 0 C3 0.66 3 1.32 3 2 C2.01 2 1.02 2 0 2 C0 1.34 0 0.68 0 0 Z " fill="#909295" transform="translate(277,90)"/>
<path d="M0 0 C0.66 0 1.32 0 2 0 C2 0.66 2 1.32 2 2 C1.34 2 0.68 2 0 2 C0 1.34 0 0.68 0 0 Z " fill="#909295" transform="translate(199,90)"/>
</svg>
