<?xml version="1.0" encoding="UTF-8"?>
<svg version="1.1" xmlns="http://www.w3.org/2000/svg" width="1080" height="1080">
<path d="M0 0 C0.33 9.24 0.66 18.48 1 28 C2.98 26.68 4.96 25.36 7 24 C29.45337697 9.41888242 55.47332955 -1.65607016 82.625 3.1875 C103.12416246 7.7828701 118.9953545 19.63565933 130.46801758 37.07104492 C147.4484094 64.09579856 149.19271906 99.47140547 143 130 C139.50711074 145.18176937 132.78412864 158.86621195 123 171 C122.32324219 171.84175781 121.64648438 172.68351563 120.94921875 173.55078125 C102.38494092 195.37314075 76.59583303 204.98831367 48.66943359 207.43554688 C32.6886702 208.66504561 17.01179375 207.94187022 1 207 C0.67 229.11 0.34 251.22 0 274 C3.3 274.33 6.6 274.66 10 275 C12.0827686 275.35718095 14.16029611 275.74863488 16.2265625 276.19140625 C17.80244141 276.52495117 17.80244141 276.52495117 19.41015625 276.86523438 C20.47105469 277.09533203 21.53195313 277.32542969 22.625 277.5625 C23.72457031 277.79646484 24.82414062 278.03042969 25.95703125 278.27148438 C28.639045 278.84286991 31.31967196 279.42075845 34 280 C34 286.27 34 292.54 34 299 C-8.9 299 -51.8 299 -96 299 C-96 293.06 -96 287.12 -96 281 C-90.29589516 278.9628197 -84.55443361 277.30052899 -78.6875 275.8125 C-77.99398437 275.63364258 -77.30046875 275.45478516 -76.5859375 275.27050781 C-73.24861204 274.43941657 -70.46627644 274 -67 274 C-67 198.43 -67 122.86 -67 45 C-77.89 45 -88.78 45 -100 45 C-100 38.4 -100 31.8 -100 25 C-91.89736327 22.20598733 -83.76308968 19.51503756 -75.61535645 16.85626221 C-72.72714068 15.91066643 -69.84167069 14.95691654 -66.95605469 14.00341797 C-61.33567063 12.1511186 -55.70371249 10.33738112 -50.06506348 8.54150391 C-47.7975133 7.81378935 -45.53330209 7.07557517 -43.27282715 6.32617188 C-28.24969449 1.35753309 -15.86547161 -0.82879329 0 0 Z M0 46 C0 91.87 0 137.74 0 185 C20.27901313 185 40.91549177 183.74918455 56.2734375 168.9140625 C71.883328 151.60898028 77.17457464 128.02910189 76.37890625 105.23828125 C75.34077771 87.75932083 71.0771222 68.83482235 58.375 56.046875 C44.11656951 43.75835925 17.65937319 37.1703134 0 46 Z " fill="#000000" transform="translate(150,480)"/>
<path d="M0 0 C4.56265065 3.65012052 7.14384865 8.21952925 9.75 13.375 C10.26240234 14.27798828 10.26240234 14.27798828 10.78515625 15.19921875 C14.92967147 23.77740141 13.70412667 36.11035614 11.3125 45.0625 C7.27932858 56.45194887 -0.63777273 66.20957995 -7.93994141 75.67480469 C-9.418282 77.59339654 -10.88724551 79.51896785 -12.35546875 81.4453125 C-15.64639215 85.76078245 -18.94710277 90.06869096 -22.25 94.375 C-22.90935547 95.23544922 -22.90935547 95.23544922 -23.58203125 96.11328125 C-30.48432451 105.11913055 -37.45105685 114.0744071 -44.42236328 123.02685547 C-46.23986598 125.36197983 -48.05575788 127.6983471 -49.87109375 130.03515625 C-55.58384553 137.38802566 -61.30696853 144.73206179 -67.06713867 152.04785156 C-71.41780587 157.57799773 -75.73349867 163.13515815 -80.04980469 168.69213867 C-84.46343461 174.37156663 -88.90218049 180.0304935 -93.359375 185.67578125 C-97.68910735 191.21666846 -101.96255775 196.80132507 -106.25 202.375 C-125.06 202.375 -143.87 202.375 -163.25 202.375 C-163.58 162.445 -163.91 122.515 -164.25 81.375 C-168.21 87.645 -172.17 93.915 -176.25 100.375 C-179.1271875 104.9228125 -179.1271875 104.9228125 -182.0625 109.5625 C-187.29956123 117.84660672 -192.49318064 126.15758937 -197.68286133 134.47143555 C-201.52096612 140.61720882 -205.37492088 146.75248004 -209.25 152.875 C-216.29776093 164.01180334 -223.27065143 175.19524918 -230.25 186.375 C-233.55 191.655 -236.85 196.935 -240.25 202.375 C-256.75 202.375 -273.25 202.375 -290.25 202.375 C-290.25 148.585 -290.25 94.795 -290.25 39.375 C-297.18 39.045 -304.11 38.715 -311.25 38.375 C-324.34090909 37.55681818 -324.34090909 37.55681818 -330.25 36.375 C-330.25 29.775 -330.25 23.175 -330.25 16.375 C-323.02558411 14.4702477 -315.80099544 12.56615318 -308.57611465 10.66316509 C-305.22007175 9.77917757 -301.86410051 8.89492003 -298.50830078 8.01000977 C-294.63596369 6.98890419 -290.76330126 5.96903725 -286.890625 4.94921875 C-285.705755 4.63659592 -284.52088501 4.32397308 -283.30010986 4.00187683 C-282.15983337 3.70179214 -281.01955688 3.40170746 -279.84472656 3.0925293 C-278.85877502 2.83271774 -277.87282349 2.57290619 -276.85699463 2.30522156 C-258.62931992 -2.39558277 -252.52577179 -1.625 -230.25 -1.625 C-229.92 40.615 -229.59 82.855 -229.25 126.375 C-219.2678344 110.57671673 -219.2678344 110.57671673 -209.4375 94.6875 C-201.16866396 81.21420225 -192.79052769 67.81091307 -184.39550781 54.41601562 C-182.5336762 51.44452845 -180.67276178 48.47247019 -178.8125 45.5 C-178.20277344 44.52587158 -177.59304688 43.55174316 -176.96484375 42.5480957 C-173.60950708 37.17876568 -170.27348451 31.79813944 -166.9609375 26.40234375 C-166.6029155 25.81932495 -166.24489349 25.23630615 -165.87602234 24.63562012 C-164.14897964 21.82210415 -162.42452272 19.00706764 -160.70336914 16.18994141 C-159.76545532 14.65926025 -159.76545532 14.65926025 -158.80859375 13.09765625 C-157.99346313 11.76359741 -157.99346313 11.76359741 -157.16186523 10.40258789 C-154.59959716 6.34503632 -151.91192195 2.36788292 -149.25 -1.625 C-133.41 -1.625 -117.57 -1.625 -101.25 -1.625 C-100.92 48.535 -100.59 98.695 -100.25 150.375 C-89.80172436 136.19542102 -89.80172436 136.19542102 -79.375 122 C-73.54191991 114.05823041 -67.58740845 106.2124019 -61.57861328 98.40283203 C-60.62317627 97.15735596 -60.62317627 97.15735596 -59.6484375 95.88671875 C-59.08817871 95.15928467 -58.52791992 94.43185059 -57.95068359 93.68237305 C-57.10884521 92.54022339 -57.10884521 92.54022339 -56.25 91.375 C-55.56356415 90.50063293 -54.8771283 89.62626587 -54.16989136 88.72540283 C-51.92925692 84.81527118 -51.72350786 81.8335831 -51.83105469 77.46118164 C-51.83356735 76.69126389 -51.83608002 75.92134613 -51.83866882 75.12809753 C-51.84605234 73.46497284 -51.86226159 71.80186848 -51.88640594 70.13890266 C-51.92232183 67.50235508 -51.92980957 64.86710907 -51.92926025 62.23033142 C-51.93187761 54.73754566 -51.97836549 47.24549547 -52.06103516 39.75317383 C-52.10971239 35.16180084 -52.11941737 30.57165887 -52.10544586 25.98007011 C-52.10804942 24.23575565 -52.12564244 22.49139435 -52.15877533 20.74739265 C-52.41377027 7.12284025 -52.41377027 7.12284025 -49.51068115 2.76275635 C-47.49584417 0.95697963 -45.63910405 -0.37037701 -43.25 -1.625 C-42.31671875 -2.12773437 -41.3834375 -2.63046875 -40.421875 -3.1484375 C-39.62265625 -3.42945313 -38.8234375 -3.71046875 -38 -4 C-37.19046875 -4.29648437 -36.3809375 -4.59296875 -35.546875 -4.8984375 C-22.95954058 -8.88014533 -10.94322372 -7.25426506 0 0 Z " fill="#000000" transform="translate(634.25,486.625)"/>
<path d="M0 0 C8.40980951 7.90954753 12.83015753 17.13173524 13.5859375 28.56640625 C13.72136209 39.38683128 9.47872597 49.29972383 2.15234375 57.22265625 C-5.30739518 64.37713732 -13.8593612 65.06130925 -23.6875 65 C-24.61667236 64.99508545 -25.54584473 64.9901709 -26.50317383 64.98510742 C-36.28736995 64.81790751 -49.04086504 63.02163496 -56.375 55.6875 C-56.4685919 53.96884591 -56.49244611 52.24634256 -56.48852539 50.52514648 C-56.48841209 48.87354774 -56.48841209 48.87354774 -56.48829651 47.18858337 C-56.48313522 45.9906868 -56.47797394 44.79279022 -56.47265625 43.55859375 C-56.4712413 42.33922623 -56.46982635 41.1198587 -56.46836853 39.86354065 C-56.46274967 35.9506693 -56.45019396 32.03785419 -56.4375 28.125 C-56.43248743 25.47981853 -56.4279241 22.83463617 -56.42382812 20.18945312 C-56.41277411 13.68878274 -56.39601764 7.18814539 -56.375 0.6875 C-58.7656827 1.3023817 -61.15463887 1.92297339 -63.54296875 2.546875 C-64.54934387 2.80476807 -64.54934387 2.80476807 -65.5760498 3.06787109 C-80.30924335 6.93674024 -91.54054304 15.62424252 -99.375 28.6875 C-111.82943412 53.17473376 -111.38305034 83.85262869 -103.0625 109.625 C-99.04648159 120.80311653 -93.77172836 129.2759626 -85.375 137.6875 C-84.79878906 138.2753125 -84.22257813 138.863125 -83.62890625 139.46875 C-73.96044987 148.55756271 -60.26542969 151.53602609 -47.375 151.6875 C-27.52738729 150.50583397 -8.46577222 143.00027118 8.078125 132.2265625 C10.625 130.6875 10.625 130.6875 12.625 130.6875 C12.625 142.5675 12.625 154.4475 12.625 166.6875 C-6.38067882 176.19033941 -6.38067882 176.19033941 -13 178.8125 C-13.81992432 179.13814941 -14.63984863 179.46379883 -15.48461914 179.79931641 C-21.83042016 182.2438288 -28.25889975 184.25379219 -34.8125 186.0625 C-35.67504395 186.3011377 -36.53758789 186.53977539 -37.42626953 186.78564453 C-49.57579273 189.97827052 -61.45658016 191.06970016 -74 191 C-75.05081757 190.99676727 -75.05081757 190.99676727 -76.12286377 190.99346924 C-105.55292191 190.84860908 -133.89511273 183.88165548 -155.375 162.6875 C-176.38741421 140.94947724 -184.96534892 111.7258373 -184.58984375 81.99609375 C-183.8978683 58.33569089 -175.33547292 35.03901345 -160.375 16.6875 C-159.68792969 15.83671875 -159.00085938 14.9859375 -158.29296875 14.109375 C-138.60458072 -9.02004661 -106.42236415 -18.08096299 -77.12280273 -20.86254883 C-49.69954271 -22.98177487 -21.52995356 -18.27467615 0 0 Z " fill="#000000" transform="translate(833.375,501.3125)"/>
<path d="M0 0 C1.627384 -0.0252212 3.25548186 -0.01707746 4.8827095 0.01675987 C5.78042517 0.01163332 6.67814084 0.00650677 7.60306001 0.00122488 C10.61783979 -0.00867582 13.63062588 0.0243691 16.64522171 0.05713463 C18.80341927 0.05882667 20.96162028 0.05787787 23.11981583 0.0544796 C28.9853956 0.05275483 34.85024241 0.08808362 40.71565151 0.12992334 C46.84287382 0.16737669 52.97011207 0.17095146 59.09743118 0.17807579 C70.7032729 0.19674044 82.30877638 0.24599972 93.914469 0.30617273 C107.12587085 0.37318722 120.33728867 0.40621419 133.54881811 0.43634534 C160.72860126 0.49909707 187.90808396 0.60466387 215.08760452 0.73828697 C213.84010146 2.92994792 212.5915771 5.12101686 211.34248734 7.3117733 C210.99509506 7.92232819 210.64770279 8.53288307 210.28978348 9.16193962 C207.25074946 14.48904902 204.11991289 19.75739913 200.92744827 24.99414635 C199.19696279 27.83512752 197.47124677 30.67893487 195.75103688 33.52615625 C194.71042632 35.22801427 193.64052093 36.911847 192.57034302 38.5952692 C190.76401216 41.50457501 189.23630896 44.45785345 187.76712799 47.54998302 C181.45521841 60.08711555 181.45521841 60.08711555 175.87767315 62.82183623 C169.56215439 64.52120188 163.09844864 64.12146372 156.62178421 63.89526939 C154.46241101 63.88990274 152.30300319 63.89293259 150.14365005 63.90367699 C144.30882736 63.90910799 138.48149371 63.79779938 132.64840603 63.6647718 C126.54293868 63.54561954 120.43728021 63.53480751 114.33082962 63.51228905 C102.78043379 63.45334028 91.23347359 63.29758387 79.68458772 63.10664874 C66.53147961 62.8939339 53.37820328 62.78972797 40.22380209 62.69443548 C13.17650141 62.49607963 -13.86775418 62.16210513 -40.91239548 61.73828697 C-40.13447114 60.15839231 -39.35372268 58.57988804 -38.57181931 57.00195885 C-37.92011513 55.68318748 -37.92011513 55.68318748 -37.25524521 54.33777428 C-35.26487782 50.48482287 -32.95929565 46.87285194 -30.59989548 43.23828697 C-24.73103742 34.078542 -19.0226046 24.82557375 -13.34476852 15.54688072 C-12.37277512 13.96133385 -12.37277512 13.96133385 -11.38114548 12.34375572 C-10.8081572 11.40684898 -10.23516891 10.46994225 -9.64481735 9.50464439 C-9.07311813 8.59174644 -8.50141891 7.6788485 -7.91239548 6.73828697 C-7.39806332 5.70611235 -6.88373116 4.67393772 -6.35381317 3.61048508 C-3.91239548 0.73828697 -3.91239548 0.73828697 0 0 Z " fill="#FC5109" transform="translate(561.9123954772949,362.2617130279541)"/>
<path d="M0 0 C6.04386939 0.14441351 12.08803389 0.15733806 18.13336229 0.18458438 C29.5640743 0.25589566 40.98968845 0.44436405 52.41816151 0.67562264 C65.43565319 0.93328031 78.45339687 1.05930148 91.47280622 1.17461765 C118.23864777 1.41462118 144.99997346 1.81880088 171.76187181 2.33206058 C170.46857619 6.34306179 169.08801574 9.77089744 166.88296556 13.36721683 C166.3274303 14.28177488 165.77189503 15.19633294 165.19952536 16.13860488 C163.88901038 18.27193045 162.55726256 20.39239001 161.20239973 22.4978292 C157.39235965 28.52488306 154.30080877 34.19885981 151.96171618 40.93733096 C148.93278085 49.06829005 145.22846357 57.38399248 137.76187181 62.33206058 C123.95679915 68.04595673 106.37265274 65.7822524 91.81570363 65.27248478 C85.72415397 65.09009869 79.63211274 65.07408067 73.53825426 65.03974795 C62.02122088 64.94991274 50.51225372 64.71241652 38.99875981 64.42061275 C25.88246901 64.09546775 12.76577432 63.93678079 -0.35354865 63.79144514 C-27.31953304 63.48901803 -54.27837722 62.97958077 -81.23812819 62.33206058 C-79.97537357 60.1147496 -78.7117364 57.89794931 -77.44760084 55.68142581 C-77.09412077 55.06052821 -76.7406407 54.43963061 -76.37644911 53.79991794 C-73.2210956 48.27005143 -69.94322351 42.82093894 -66.61312819 37.39456058 C-65.53748535 35.63552059 -64.46197253 33.87640109 -63.38656569 32.11721683 C-62.75444166 31.18442904 -62.12231764 30.25164126 -61.47103834 29.29058719 C-59.54514314 26.20541355 -58.5364675 23.19184864 -57.48739576 19.71716189 C-48.26190722 -5.87442392 -22.7224796 -0.63470045 0 0 Z " fill="#FC5109" transform="translate(858.2381281852722,298.66793942451477)"/>
</svg>
